<svg width="23" height="22" viewBox="0 0 23 22" fill="none" xmlns="http://www.w3.org/2000/svg">
<g id="fi-rr-shopping-cart-check" clip-path="url(#clip0_118_10691)">
<path id="Vector" d="M6.91683 22.0002C7.92935 22.0002 8.75016 21.1794 8.75016 20.1668C8.75016 19.1543 7.92935 18.3335 6.91683 18.3335C5.90431 18.3335 5.0835 19.1543 5.0835 20.1668C5.0835 21.1794 5.90431 22.0002 6.91683 22.0002Z" fill="#35A839"/>
<path id="Vector_2" d="M16.0833 22.0002C17.0959 22.0002 17.9167 21.1794 17.9167 20.1668C17.9167 19.1543 17.0959 18.3335 16.0833 18.3335C15.0708 18.3335 14.25 19.1543 14.25 20.1668C14.25 21.1794 15.0708 22.0002 16.0833 22.0002Z" fill="#35A839"/>
<path id="Vector_3" d="M22.2111 1.22444C22.0392 1.05259 21.8061 0.956055 21.5631 0.956055C21.32 0.956055 21.0869 1.05259 20.915 1.22444L16.1859 5.95811L14.7641 4.47402C14.6807 4.38723 14.581 4.31772 14.4707 4.26946C14.3605 4.2212 14.2417 4.19513 14.1214 4.19275C14.001 4.19036 13.8814 4.21171 13.7693 4.25557C13.6571 4.29943 13.5548 4.36494 13.468 4.44836C13.3812 4.53178 13.3117 4.63148 13.2634 4.74177C13.2152 4.85205 13.1891 4.97077 13.1867 5.09113C13.1819 5.3342 13.2738 5.56924 13.4423 5.74452L14.9218 7.28361C15.0795 7.45388 15.27 7.59041 15.4819 7.68495C15.6938 7.77948 15.9227 7.83005 16.1547 7.83361H16.185C16.4124 7.83436 16.6376 7.78993 16.8477 7.70291C17.0578 7.61589 17.2485 7.48801 17.4087 7.32669L22.2111 2.52061C22.383 2.34871 22.4795 2.11559 22.4795 1.87253C22.4795 1.62946 22.383 1.39634 22.2111 1.22444Z" fill="#35A839"/>
<path id="Vector_4" d="M20.575 8.26467C20.4565 8.24325 20.3349 8.2454 20.2172 8.271C20.0995 8.29659 19.9881 8.34512 19.8891 8.41382C19.7902 8.48252 19.7058 8.57004 19.6407 8.67138C19.5756 8.77271 19.5312 8.88588 19.5098 9.00442L19.3925 9.65433C19.2781 10.289 18.9444 10.8632 18.4496 11.2768C17.9548 11.6903 17.3304 11.9168 16.6856 11.9167H5.4665L4.60483 4.58333H10.5833C10.8264 4.58333 11.0596 4.48676 11.2315 4.31485C11.4034 4.14294 11.5 3.90978 11.5 3.66667C11.5 3.42355 11.4034 3.19039 11.2315 3.01849C11.0596 2.84658 10.8264 2.75 10.5833 2.75H4.3885L4.35 2.42733C4.271 1.75872 3.94947 1.14231 3.44634 0.694929C2.94321 0.24755 2.29343 0.000286767 1.62017 0L1.41667 0C1.17355 0 0.940394 0.0965771 0.768485 0.268485C0.596577 0.440394 0.5 0.673551 0.5 0.916667C0.5 1.15978 0.596577 1.39294 0.768485 1.56485C0.940394 1.73676 1.17355 1.83333 1.41667 1.83333H1.62017C1.84469 1.83336 2.06139 1.91579 2.22917 2.06499C2.39696 2.21418 2.50415 2.41977 2.53042 2.64275L3.79175 13.3677C3.9227 14.4831 4.4586 15.5116 5.29775 16.258C6.13689 17.0044 7.22087 17.4167 8.34392 17.4167H17.9167C18.1598 17.4167 18.3929 17.3201 18.5648 17.1482C18.7368 16.9763 18.8333 16.7431 18.8333 16.5C18.8333 16.2569 18.7368 16.0237 18.5648 15.8518C18.3929 15.6799 18.1598 15.5833 17.9167 15.5833H8.34392C7.77514 15.5834 7.22033 15.4072 6.75589 15.0788C6.29146 14.7505 5.94026 14.2862 5.75067 13.75H16.6856C17.7602 13.7501 18.8006 13.3725 19.6252 12.6834C20.4497 11.9943 21.0059 11.0373 21.1965 9.97975L21.3138 9.32892C21.3568 9.08983 21.3032 8.84345 21.1646 8.64391C21.0261 8.44436 20.814 8.30796 20.575 8.26467Z" fill="#35A839"/>
</g>
<defs>
<clipPath id="clip0_118_10691">
<rect width="22" height="22" fill="white" transform="translate(0.5)"/>
</clipPath>
</defs>
</svg>
