<svg width="24" height="24" viewBox="0 0 24 24" fill="none" xmlns="http://www.w3.org/2000/svg">
<g clip-path="url(#clip0_483_5300)">
<path d="M18.581 2.14024L12.316 0.0512408C12.1109 -0.0170803 11.8891 -0.0170803 11.684 0.0512408L5.419 2.14024C4.42291 2.47112 3.55642 3.1075 2.94264 3.95895C2.32887 4.8104 1.99904 5.83362 2 6.88324V12.0002C2 19.5632 11.2 23.7402 11.594 23.9142C11.7218 23.971 11.8601 24.0004 12 24.0004C12.1399 24.0004 12.2782 23.971 12.406 23.9142C12.8 23.7402 22 19.5632 22 12.0002V6.88324C22.001 5.83362 21.6711 4.8104 21.0573 3.95895C20.4436 3.1075 19.5771 2.47112 18.581 2.14024ZM20 12.0002C20 17.4552 13.681 21.0332 12 21.8892C10.317 21.0362 4 17.4692 4 12.0002V6.88324C4.00006 6.25351 4.19828 5.63978 4.56657 5.12898C4.93486 4.61818 5.45454 4.23623 6.052 4.03724L12 2.05424L17.948 4.03724C18.5454 4.23623 19.0651 4.61818 19.4334 5.12898C19.8017 5.63978 19.9999 6.25351 20 6.88324V12.0002Z" fill="#3AB549"/>
<path d="M15.3 8.2991L11.112 12.4991L8.86804 10.1591C8.77798 10.0606 8.66913 9.98119 8.5479 9.92545C8.42666 9.8697 8.2955 9.83878 8.16213 9.83451C8.02877 9.83024 7.89589 9.8527 7.77134 9.90058C7.64679 9.94845 7.53308 10.0208 7.43691 10.1133C7.34074 10.2058 7.26405 10.3166 7.21137 10.4392C7.15869 10.5618 7.13107 10.6937 7.13015 10.8271C7.12923 10.9605 7.15502 11.0928 7.20601 11.2161C7.257 11.3394 7.33215 11.4513 7.42704 11.5451L9.73304 13.9451C9.90501 14.1309 10.1129 14.2798 10.3441 14.3829C10.5752 14.4861 10.8249 14.5412 11.078 14.5451H11.111C11.3591 14.5459 11.6048 14.4975 11.834 14.4025C12.0632 14.3076 12.2712 14.1681 12.446 13.9921L16.718 9.7201C16.8113 9.62699 16.8854 9.51642 16.936 9.39469C16.9865 9.27297 17.0126 9.14247 17.0128 9.01066C17.0129 8.87885 16.9871 8.7483 16.9368 8.62646C16.8865 8.50463 16.8126 8.3939 16.7195 8.3006C16.6264 8.20729 16.5159 8.13324 16.3941 8.08267C16.2724 8.0321 16.1419 8.006 16.0101 8.00586C15.8783 8.00572 15.7477 8.03155 15.6259 8.08186C15.5041 8.13217 15.3933 8.20599 15.3 8.2991Z" fill="#3AB549"/>
</g>
<defs>
<clipPath id="clip0_483_5300">
<rect width="24" height="24" fill="white"/>
</clipPath>
</defs>
</svg>
