<svg width="140" height="31" viewBox="0 0 140 31" fill="none" xmlns="http://www.w3.org/2000/svg">
<path d="M48.4755 1.55414C46.3236 -2.17695 33.7995 1.03968 20.5014 8.74432C7.20289 16.4459 -1.83587 25.7148 0.317086 29.4469C2.16708 32.6549 11.6779 30.7213 22.759 25.2299C23.2529 24.9574 23.2192 24.3711 22.5741 24.582C15.7438 27.1048 10.048 27.2607 8.57191 24.582C6.61382 21.0292 12.8198 13.8339 22.4333 8.51103C32.0467 3.18716 41.4286 1.75126 43.3867 5.30408C44.2827 6.93098 43.464 9.32041 41.3924 11.9462C41.384 11.9579 41.379 11.9706 41.3651 11.9854C40.599 12.9389 41.1569 13.2262 41.7048 12.7627C47.0059 8.05413 49.7682 3.80043 48.4755 1.55414Z" fill="#EF373E"/>
<path d="M28.5315 26.1214C27.3474 25.802 26.3795 25.3685 25.6357 24.821L26.9805 21.7795C27.7709 22.2833 28.6128 22.6663 29.5004 22.9343C30.3904 23.2007 31.2834 23.3356 32.1804 23.3356C33.0923 23.3356 33.7914 23.2073 34.2793 22.9567C34.7638 22.7045 35.0072 22.35 35.0072 21.8952C35.0072 21.4816 34.788 21.1444 34.3472 20.8739C33.9059 20.6111 33.0744 20.3457 31.8596 20.089C30.3259 19.7828 29.1334 19.4049 28.2806 18.9566C27.4292 18.5079 26.8347 17.9776 26.4896 17.3689C26.1479 16.7562 25.9774 16.0202 25.9774 15.1512C25.9774 14.161 26.259 13.265 26.8238 12.4663C27.3866 11.6646 28.174 11.0421 29.1939 10.5903C30.2114 10.1406 31.3722 9.91797 32.6817 9.91797C33.8539 9.91797 34.9894 10.081 36.0906 10.408C37.1919 10.7355 38.0542 11.1659 38.677 11.6992L37.356 14.7411C36.6425 14.2374 35.8893 13.8543 35.0989 13.5839C34.3081 13.319 33.5187 13.185 32.7273 13.185C31.9528 13.185 31.3285 13.3348 30.857 13.6297C30.3849 13.9277 30.1524 14.3296 30.1524 14.8313C30.1524 15.1058 30.2347 15.333 30.4018 15.5174C30.5689 15.6987 30.8823 15.8801 31.334 16.0528C31.7931 16.229 32.4764 16.4144 33.3883 16.6141C34.8624 16.934 36.0227 17.319 36.8671 17.7657C37.7081 18.2165 38.3056 18.7442 38.6551 19.3448C39.0062 19.9468 39.1807 20.6661 39.1807 21.504C39.1807 23.0891 38.5639 24.3386 37.3337 25.2412C36.102 26.1489 34.3691 26.6007 32.1338 26.6007C30.9195 26.6007 29.7141 26.4407 28.5315 26.1214Z" fill="#2CB34A"/>
<path d="M53.5467 14.7871V26.3976H49.4867V24.8206C49.1565 25.3697 48.6685 25.8016 48.0289 26.1113C47.3908 26.4241 46.6881 26.583 45.932 26.583C44.9418 26.583 44.0616 26.338 43.2847 25.85C42.5126 25.3615 41.9062 24.6657 41.4714 23.7591C41.041 22.8544 40.8208 21.8041 40.8208 20.6168C40.8208 19.4126 41.0429 18.3471 41.4862 17.4159C41.9255 16.4858 42.5315 15.7615 43.307 15.244C44.0835 14.7275 44.9576 14.4688 45.932 14.4688C46.6881 14.4688 47.3878 14.6297 48.017 14.9588C48.6497 15.2863 49.1376 15.7243 49.4867 16.2714V14.7871H53.5467ZM48.8952 22.7429C49.2908 22.2371 49.4867 21.5158 49.4867 20.5709C49.4867 19.6103 49.2908 18.8742 48.8952 18.3649C48.5005 17.855 47.9377 17.5962 47.2068 17.5962C46.4928 17.5962 45.932 17.8611 45.5204 18.3863C45.1089 18.9124 44.9046 19.6546 44.9046 20.6168C44.9046 21.5423 45.0995 22.2569 45.4971 22.7536C45.8938 23.2477 46.463 23.4947 47.2068 23.4947C47.9377 23.4947 48.5005 23.2436 48.8952 22.7429Z" fill="#2CB34A"/>
<path d="M56.2476 14.7879V14.4695C56.2476 12.8981 56.6571 11.6721 57.4673 10.7888C58.282 9.9051 59.4646 9.46094 61.0136 9.46094C61.8972 9.46094 62.6132 9.56994 63.1581 9.78235V12.9598C62.7168 12.8523 62.3509 12.7993 62.0653 12.7993C61.5784 12.7993 61.1743 12.9394 60.854 13.2226C60.5366 13.5048 60.377 13.9332 60.377 14.5123V14.7879H62.6321V17.8283H60.377V26.3983H56.2476V17.8283C56.2476 17.8283 56.3081 14.7879 56.2476 14.7879Z" fill="#2CB34A"/>
<path d="M76.6113 14.7871V26.3976H72.5519V24.8206C72.2177 25.3697 71.7317 25.8016 71.0911 26.1113C70.4549 26.4241 69.7548 26.583 68.9942 26.583C68.0069 26.583 67.1268 26.338 66.3503 25.85C65.5758 25.3615 64.9729 24.6657 64.536 23.7591C64.1031 22.8544 63.8875 21.8041 63.8875 20.6168C63.8875 19.4126 64.1086 18.3471 64.5474 17.4159C64.9887 16.4858 65.5981 15.7615 66.3726 15.244C67.1501 14.7275 68.0218 14.4688 68.9942 14.4688C69.7548 14.4688 70.451 14.6297 71.0802 14.9588C71.7109 15.2863 72.2028 15.7243 72.5519 16.2714V14.7871H76.6113ZM71.9573 22.7429C72.355 22.2371 72.5519 21.5158 72.5519 20.5709C72.5519 19.6103 72.355 18.8742 71.9573 18.3649C71.5636 17.855 71.0028 17.5962 70.271 17.5962C69.5579 17.5962 68.9942 17.8611 68.5846 18.3863C68.175 18.9124 67.9697 19.6546 67.9697 20.6168C67.9697 21.5423 68.1666 22.2569 68.5633 22.7536C68.957 23.2477 69.5272 23.4947 70.271 23.4947C71.0028 23.4947 71.5636 23.2436 71.9573 22.7429Z" fill="#2CB34A"/>
<path d="M87.6564 14.7628V18.5362C87.0054 18.2296 86.3781 18.0768 85.7722 18.0768C84.0467 18.0768 83.1824 18.9086 83.1824 20.5701V26.3967H79.0709V18.1216C79.0709 16.8752 79.0099 15.7607 78.8909 14.7863H82.7515L83.0024 16.729C83.2732 16.0133 83.7125 15.4637 84.3194 15.0812C84.9253 14.7032 85.6036 14.5117 86.3603 14.5117C86.9221 14.5117 87.353 14.5963 87.6564 14.7628Z" fill="#2CB34A"/>
<path d="M93.0034 14.7871H88.8765V26.3976H93.0034V14.7871Z" fill="#2CB34A"/>
<path d="M96.6071 24.9805C95.4994 23.9149 94.9451 22.4597 94.9451 20.6163C94.9451 19.3969 95.2118 18.3216 95.7503 17.3945C96.2918 16.4644 97.0484 15.7447 98.0218 15.2343C98.9927 14.7234 100.12 14.4688 101.397 14.4688C102.245 14.4688 103.083 14.593 103.906 14.8431C104.724 15.0953 105.377 15.435 105.864 15.8634L104.815 18.7148C104.406 18.3832 103.925 18.1168 103.381 17.9197C102.831 17.72 102.308 17.6207 101.805 17.6207C100.953 17.6207 100.3 17.8667 99.8455 18.3521C99.3883 18.8391 99.1598 19.5644 99.1598 20.5241C99.1598 21.499 99.3883 22.235 99.8455 22.7322C100.3 23.2252 100.963 23.4723 101.83 23.4723C102.331 23.4723 102.851 23.374 103.392 23.1743C103.93 22.9782 104.406 22.7098 104.815 22.3761L105.864 25.1853C105.364 25.6294 104.696 25.9712 103.871 26.2147C103.041 26.4587 102.154 26.5799 101.214 26.5799C99.251 26.5799 97.7178 26.0471 96.6071 24.9805Z" fill="#2CB34A"/>
<path d="M109.675 25.8486C108.717 25.3626 107.978 24.6607 107.462 23.7454C106.943 22.8301 106.687 21.7568 106.687 20.5237C106.687 19.2869 106.943 18.2157 107.462 17.2989C107.978 16.3866 108.717 15.6867 109.675 15.1988C110.631 14.7098 111.756 14.4668 113.05 14.4668C114.326 14.4668 115.439 14.7143 116.388 15.2105C117.34 15.7046 118.072 16.4054 118.587 17.3136C119.105 18.2173 119.363 19.2869 119.363 20.5237C119.363 21.7568 119.105 22.829 118.587 23.7347C118.072 24.6414 117.34 25.3428 116.388 25.8358C115.439 26.333 114.326 26.5815 113.05 26.5815C111.756 26.5815 110.631 26.3375 109.675 25.8486ZM115.286 20.5237C115.286 19.5171 115.096 18.777 114.723 18.2957C114.353 17.8164 113.792 17.5775 113.05 17.5775C112.287 17.5775 111.719 17.8164 111.338 18.2957C110.958 18.777 110.766 19.5171 110.766 20.5237C110.766 21.5439 110.958 22.2957 111.338 22.7761C111.719 23.2554 112.287 23.4963 113.05 23.4963C114.54 23.4963 115.286 22.5046 115.286 20.5237Z" fill="#2CB34A"/>
<path d="M139.032 15.7009C139.679 16.524 140 17.7817 140 19.4712V26.397H135.875V19.5868C135.875 18.8992 135.774 18.4051 135.567 18.102C135.359 17.7954 135.013 17.6446 134.529 17.6446C133.95 17.6446 133.503 17.8591 133.182 18.2844C132.863 18.7118 132.704 19.3087 132.704 20.0901V26.397H128.578V19.5868C128.578 18.8992 128.469 18.4051 128.258 18.102C128.043 17.7954 127.703 17.6446 127.232 17.6446C126.656 17.6446 126.208 17.8591 125.899 18.2844C125.586 18.7118 125.431 19.3087 125.431 20.0901V26.397H121.299V18.1229C121.299 16.876 121.245 15.7615 121.12 14.7866H124.997L125.202 16.4115C125.552 15.7844 126.043 15.3031 126.673 14.9689C127.304 14.6363 128.03 14.4688 128.849 14.4688C130.507 14.4688 131.634 15.1707 132.225 16.5694C132.636 15.9291 133.182 15.4187 133.855 15.0382C134.531 14.6582 135.266 14.4688 136.055 14.4688C137.392 14.4687 138.385 14.8788 139.032 15.7009Z" fill="#2CB34A"/>
<path d="M93.0034 9.09375H88.8765V12.8182H93.0034V9.09375Z" fill="#2CB34A"/>
</svg>
