<svg width="29" height="28" viewBox="0 0 29 28" fill="none" xmlns="http://www.w3.org/2000/svg">
<g id="receipt_thin">
<path id="Icon" fill-rule="evenodd" clip-rule="evenodd" d="M18.2151 11.1095H10.3463C9.95795 11.1095 9.64231 10.7907 9.64231 10.3985C9.64231 10.0063 9.95795 9.68868 10.3463 9.68868H18.2151C18.6035 9.68868 18.9192 10.0063 18.9192 10.3985C18.9192 10.7907 18.6035 11.1095 18.2151 11.1095ZM18.2151 14.5933H10.3463C9.95795 14.5933 9.64231 14.2757 9.64231 13.8835C9.64231 13.4913 9.95795 13.1725 10.3463 13.1725H18.2151C18.6035 13.1725 18.9192 13.4913 18.9192 13.8835C18.9192 14.2757 18.6035 14.5933 18.2151 14.5933ZM15.6665 18.0771H10.3463C9.95795 18.0771 9.64231 17.7584 9.64231 17.3662C9.64231 16.9739 9.95795 16.6564 10.3463 16.6564H15.6665C16.0549 16.6564 16.3705 16.9739 16.3705 17.3662C16.3705 17.7584 16.0549 18.0771 15.6665 18.0771ZM18.6411 24.0127H18.8265C19.1186 22.3336 20.4246 21.0112 22.0768 20.7149V7.03551C20.4258 6.74045 19.1198 5.42157 18.8265 3.7543H18.6411C18.3465 4.63711 17.5193 5.27345 16.5477 5.27345C15.5762 5.27345 14.7489 4.63711 14.4544 3.7543H14.215C13.9205 4.63711 13.0944 5.27345 12.1229 5.27345C11.1501 5.27345 10.3229 4.63711 10.0284 3.7543H9.82419C9.53202 5.42157 8.22486 6.74045 6.5739 7.03551V20.7149C8.23073 21.0112 9.53906 22.3383 9.82771 24.0127H10.0284C10.3229 23.1299 11.1501 22.4924 12.1229 22.4924C13.0944 22.4924 13.9205 23.1299 14.215 24.0127H14.4544C14.7489 23.1299 15.5762 22.4924 16.5477 22.4924C17.5193 22.4924 18.3465 23.1299 18.6411 24.0127ZM19.4695 25.4335H18.052C17.6636 25.4335 17.3492 25.1147 17.3492 24.7225C17.3492 24.277 16.9889 23.9144 16.5477 23.9144C16.1065 23.9144 15.7463 24.277 15.7463 24.7225C15.7463 25.1147 15.4318 25.4335 15.0434 25.4335H13.626C13.2376 25.4335 12.9219 25.1147 12.9219 24.7225C12.9219 24.277 12.5641 23.9144 12.1229 23.9144C11.6817 23.9144 11.3214 24.277 11.3214 24.7225C11.3214 25.1147 11.0058 25.4335 10.6174 25.4335H9.18117C8.79278 25.4335 8.47713 25.1147 8.47713 24.7225C8.47831 23.2555 7.30843 22.0741 5.86985 22.0741C5.48146 22.0741 5.16699 21.7553 5.16699 21.3631V6.3885C5.16699 5.99627 5.48146 5.67751 5.86985 5.67751C7.30843 5.67751 8.47831 4.49608 8.47831 3.0433C8.47831 2.65107 8.79395 2.3335 9.18234 2.3335H10.6174C11.0058 2.3335 11.3214 2.65107 11.3214 3.0433C11.3214 3.48885 11.6817 3.85264 12.1229 3.85264C12.5641 3.85264 12.9219 3.48885 12.9219 3.0433C12.9219 2.65107 13.2376 2.3335 13.626 2.3335H15.0434C15.4318 2.3335 15.7463 2.65107 15.7463 3.0433C15.7463 3.48885 16.1065 3.85264 16.5477 3.85264C16.9889 3.85264 17.3492 3.48885 17.3492 3.0433C17.3492 2.65107 17.6636 2.3335 18.052 2.3335H19.4683C19.8567 2.3335 20.1723 2.65107 20.1723 3.0433C20.1723 4.49608 21.3422 5.67751 22.7808 5.67751C23.1692 5.67751 23.4837 5.99627 23.4837 6.3885V21.3631C23.4837 21.7553 23.1692 22.0741 22.7808 22.0741C21.3422 22.0741 20.1723 23.2555 20.1723 24.7083C20.1723 25.1005 19.8579 25.4335 19.4695 25.4335Z" fill="#3AB549"/>
</g>
</svg>
