<svg width="328" height="223" viewBox="0 0 328 223" fill="none" xmlns="http://www.w3.org/2000/svg">
<path fill-rule="evenodd" clip-rule="evenodd" d="M12 21C16.9706 21 21 16.9706 21 12C21 7.02944 16.9706 3 12 3C7.02944 3 3 7.02944 3 12C3 16.9706 7.02944 21 12 21ZM16.1736 9.26093C15.7654 8.8889 15.1329 8.91821 14.7609 9.32639L10.9 13.561L9.19877 11.8984L9.1036 11.8163C8.70776 11.5159 8.14089 11.5503 7.78466 11.915C7.39873 12.31 7.40615 12.9432 7.80123 13.3291L10.2441 15.7154L10.3416 15.7992C10.7476 16.1055 11.3301 16.0597 11.6819 15.6736L16.2391 10.6736L16.3178 10.5757C16.6044 10.1697 16.5504 9.60434 16.1736 9.26093Z" fill="#017B00"/>
<rect x="11" y="28" width="2" height="38" rx="1" fill="#017B00"/>
<path d="M36.6562 15.7109L38.1406 15.0234C38.2812 15.5339 38.5391 15.9245 38.9141 16.1953C39.2891 16.4609 39.7682 16.5938 40.3516 16.5938C40.9036 16.5938 41.3411 16.4401 41.6641 16.1328C41.9922 15.8255 42.1562 15.4141 42.1562 14.8984C42.1562 14.2266 41.599 13.6276 40.4844 13.1016C40.3281 13.0234 40.2083 12.9661 40.125 12.9297C38.8646 12.3151 38.0234 11.7604 37.6016 11.2656C37.1849 10.7656 36.9766 10.1562 36.9766 9.4375C36.9766 8.50521 37.2917 7.75 37.9219 7.17188C38.5573 6.59375 39.388 6.30469 40.4141 6.30469C41.2578 6.30469 41.9635 6.46875 42.5312 6.79688C43.099 7.11979 43.4922 7.58594 43.7109 8.19531L42.2578 8.94531C42.0286 8.58594 41.776 8.32292 41.5 8.15625C41.2292 7.98958 40.9167 7.90625 40.5625 7.90625C40.0625 7.90625 39.6641 8.03646 39.3672 8.29688C39.0755 8.55729 38.9297 8.90625 38.9297 9.34375C38.9297 10.0312 39.5755 10.6719 40.8672 11.2656C40.9661 11.3125 41.0443 11.349 41.1016 11.375C42.2318 11.8958 43.0078 12.4062 43.4297 12.9062C43.8516 13.401 44.0625 14.0208 44.0625 14.7656C44.0625 15.849 43.7214 16.7109 43.0391 17.3516C42.3568 17.987 41.4349 18.3047 40.2734 18.3047C39.2995 18.3047 38.5 18.0807 37.875 17.6328C37.2552 17.1849 36.849 16.5443 36.6562 15.7109ZM53.0859 14.5469H47.1641C47.2057 15.2396 47.4115 15.7812 47.7812 16.1719C48.151 16.5573 48.6432 16.75 49.2578 16.75C49.8047 16.75 50.2604 16.6354 50.625 16.4062C50.9896 16.1771 51.3073 15.8073 51.5781 15.2969L53.0078 16.0938C52.5911 16.8385 52.0755 17.3932 51.4609 17.7578C50.8464 18.1224 50.125 18.3047 49.2969 18.3047C48.1094 18.3047 47.1641 17.9427 46.4609 17.2188C45.7578 16.4948 45.4062 15.5286 45.4062 14.3203C45.4062 13.1589 45.7682 12.2057 46.4922 11.4609C47.2214 10.7109 48.1562 10.3359 49.2969 10.3359C50.4896 10.3359 51.4193 10.6771 52.0859 11.3594C52.7526 12.0417 53.0859 12.9974 53.0859 14.2266V14.5469ZM51.3281 13.4062C51.2604 12.875 51.0573 12.4714 50.7188 12.1953C50.3802 11.9141 49.9167 11.7734 49.3281 11.7734C48.7708 11.7734 48.3229 11.9089 47.9844 12.1797C47.6458 12.4505 47.4089 12.8594 47.2734 13.4062H51.3281ZM54.9375 18V5.89062H56.6328V18H54.9375ZM66.1953 14.5469H60.2734C60.3151 15.2396 60.5208 15.7812 60.8906 16.1719C61.2604 16.5573 61.7526 16.75 62.3672 16.75C62.9141 16.75 63.3698 16.6354 63.7344 16.4062C64.099 16.1771 64.4167 15.8073 64.6875 15.2969L66.1172 16.0938C65.7005 16.8385 65.1849 17.3932 64.5703 17.7578C63.9557 18.1224 63.2344 18.3047 62.4062 18.3047C61.2188 18.3047 60.2734 17.9427 59.5703 17.2188C58.8672 16.4948 58.5156 15.5286 58.5156 14.3203C58.5156 13.1589 58.8776 12.2057 59.6016 11.4609C60.3307 10.7109 61.2656 10.3359 62.4062 10.3359C63.599 10.3359 64.5286 10.6771 65.1953 11.3594C65.862 12.0417 66.1953 12.9974 66.1953 14.2266V14.5469ZM64.4375 13.4062C64.3698 12.875 64.1667 12.4714 63.8281 12.1953C63.4896 11.9141 63.026 11.7734 62.4375 11.7734C61.8802 11.7734 61.4323 11.9089 61.0938 12.1797C60.7552 12.4505 60.5182 12.8594 60.3828 13.4062H64.4375ZM73.5 12.7031C73.2396 12.4167 72.9349 12.1979 72.5859 12.0469C72.2422 11.8958 71.8698 11.8203 71.4688 11.8203C70.776 11.8203 70.2214 12.0443 69.8047 12.4922C69.388 12.9401 69.1797 13.5339 69.1797 14.2734C69.1797 15.0443 69.388 15.651 69.8047 16.0938C70.2266 16.5312 70.8073 16.75 71.5469 16.75C71.9583 16.75 72.3255 16.6745 72.6484 16.5234C72.9714 16.3672 73.2552 16.1328 73.5 15.8203V17.7734C73.1875 17.9505 72.8516 18.0833 72.4922 18.1719C72.138 18.2604 71.7604 18.3047 71.3594 18.3047C70.1979 18.3047 69.25 17.9349 68.5156 17.1953C67.7865 16.4557 67.4219 15.4974 67.4219 14.3203C67.4219 13.1276 67.7995 12.1667 68.5547 11.4375C69.3151 10.7031 70.3073 10.3359 71.5312 10.3359C71.9167 10.3359 72.2708 10.375 72.5938 10.4531C72.9167 10.526 73.2188 10.6406 73.5 10.7969V12.7031ZM75.6328 18V12.0781H74.3359V10.5938H75.6328V7.78906H77.3281V10.5938H78.625V12.0781H77.3281V18H75.6328ZM87.4766 13.5078H90.6641L89.4922 10.8984C89.4245 10.7318 89.3542 10.5417 89.2812 10.3281C89.2083 10.1094 89.1354 9.86719 89.0625 9.60156C89 9.85156 88.9323 10.0859 88.8594 10.3047C88.7917 10.5182 88.7214 10.7161 88.6484 10.8984L87.4766 13.5078ZM92.6172 18L91.3203 15.0547H86.7891L85.4609 18H83.5078L89.0469 6.10938L94.5781 18H92.6172ZM97.1562 14.2734C97.1562 15.0391 97.3464 15.651 97.7266 16.1094C98.112 16.5677 98.6172 16.7969 99.2422 16.7969C99.8828 16.7969 100.378 16.5833 100.727 16.1562C101.081 15.7292 101.258 15.1224 101.258 14.3359C101.258 13.5547 101.073 12.9453 100.703 12.5078C100.339 12.0651 99.8359 11.8438 99.1953 11.8438C98.5547 11.8438 98.0547 12.0573 97.6953 12.4844C97.3359 12.9115 97.1562 13.5078 97.1562 14.2734ZM95.5156 21.4844V10.5938H97.2109V11.8047C97.4089 11.3359 97.724 10.974 98.1562 10.7188C98.5938 10.4635 99.1146 10.3359 99.7188 10.3359C100.703 10.3359 101.5 10.7005 102.109 11.4297C102.724 12.1536 103.031 13.1068 103.031 14.2891C103.031 15.5339 102.729 16.5156 102.125 17.2344C101.526 17.9479 100.703 18.3047 99.6562 18.3047C99.1354 18.3047 98.6719 18.2005 98.2656 17.9922C97.8646 17.7839 97.513 17.4661 97.2109 17.0391V21.4844H95.5156ZM106.469 14.2734C106.469 15.0391 106.659 15.651 107.039 16.1094C107.424 16.5677 107.93 16.7969 108.555 16.7969C109.195 16.7969 109.69 16.5833 110.039 16.1562C110.393 15.7292 110.57 15.1224 110.57 14.3359C110.57 13.5547 110.385 12.9453 110.016 12.5078C109.651 12.0651 109.148 11.8438 108.508 11.8438C107.867 11.8438 107.367 12.0573 107.008 12.4844C106.648 12.9115 106.469 13.5078 106.469 14.2734ZM104.828 21.4844V10.5938H106.523V11.8047C106.721 11.3359 107.036 10.974 107.469 10.7188C107.906 10.4635 108.427 10.3359 109.031 10.3359C110.016 10.3359 110.812 10.7005 111.422 11.4297C112.036 12.1536 112.344 13.1068 112.344 14.2891C112.344 15.5339 112.042 16.5156 111.438 17.2344C110.839 17.9479 110.016 18.3047 108.969 18.3047C108.448 18.3047 107.984 18.2005 107.578 17.9922C107.177 17.7839 106.826 17.4661 106.523 17.0391V21.4844H104.828Z" fill="#1E293B"/>
<path d="M40.8467 35.4424C41.4961 35.7227 41.9883 36.0918 42.3164 36.5498C42.6445 37.0146 42.8154 37.5547 42.8154 38.1836C42.8154 39.1064 42.5215 39.8516 41.9336 40.4121C41.3457 40.9727 40.5732 41.2529 39.6094 41.2529C38.8164 41.2529 38.1602 41.0547 37.627 40.6514C37.0938 40.248 36.7314 39.6738 36.5469 38.9287L37.627 38.3955C37.7705 39.0039 38.0098 39.4619 38.3447 39.7764C38.6797 40.0908 39.1035 40.2412 39.6094 40.2412C40.2041 40.2412 40.6895 40.0703 41.0586 39.7285C41.4277 39.3867 41.6123 38.9355 41.6123 38.3818C41.6123 37.9375 41.4824 37.5479 41.2227 37.2197C40.9629 36.8916 40.5801 36.6113 40.0605 36.3789L38.8438 35.8594C38.1738 35.5859 37.6816 35.2236 37.3535 34.7861C37.0254 34.3486 36.8682 33.8291 36.8682 33.2139C36.8682 32.5029 37.1279 31.915 37.6611 31.4502C38.1875 30.9854 38.8643 30.7529 39.6846 30.7529C40.2861 30.7529 40.8057 30.8828 41.2432 31.1357C41.6807 31.3955 42.0293 31.7715 42.2754 32.2637L41.291 32.8926C41.0654 32.5098 40.8125 32.2227 40.5391 32.0312C40.2588 31.8398 39.9443 31.7441 39.5957 31.7441C39.1445 31.7441 38.7822 31.8809 38.4951 32.1543C38.208 32.4277 38.0713 32.7764 38.0713 33.2002C38.0713 33.5557 38.1807 33.8633 38.3994 34.123C38.6182 34.3828 38.9531 34.6152 39.418 34.8135L40.8467 35.4424ZM48.7354 37.165C48.6943 36.6182 48.5098 36.1943 48.1816 35.8936C47.8535 35.5928 47.4023 35.4424 46.8281 35.4424C46.3086 35.4424 45.8711 35.5996 45.5293 35.9141C45.1807 36.2285 44.9824 36.6455 44.9277 37.165H48.7354ZM49.8838 38.0332H44.9277V38.1289C44.9277 38.7988 45.1191 39.3457 45.502 39.7559C45.8848 40.166 46.3838 40.3711 46.999 40.3711C47.416 40.3711 47.792 40.2617 48.1338 40.0361C48.4688 39.8105 48.7695 39.4688 49.0293 39.0107L49.8428 39.5576C49.5283 40.125 49.125 40.5488 48.6396 40.8359C48.1475 41.123 47.5869 41.2666 46.9443 41.2666C45.9873 41.2666 45.2217 40.9521 44.6338 40.3232C44.0459 39.6943 43.752 38.874 43.752 37.8486C43.752 36.8711 44.0391 36.0713 44.627 35.4424C45.208 34.8203 45.96 34.5059 46.876 34.5059C47.7988 34.5059 48.5303 34.8066 49.0703 35.3945C49.6104 35.9893 49.8838 36.7959 49.8838 37.8213V38.0332ZM51.5586 41V30.4043H52.6523V41H51.5586ZM59.3311 37.165C59.29 36.6182 59.1055 36.1943 58.7773 35.8936C58.4492 35.5928 57.998 35.4424 57.4238 35.4424C56.9043 35.4424 56.4668 35.5996 56.125 35.9141C55.7764 36.2285 55.5781 36.6455 55.5234 37.165H59.3311ZM60.4795 38.0332H55.5234V38.1289C55.5234 38.7988 55.7148 39.3457 56.0977 39.7559C56.4805 40.166 56.9795 40.3711 57.5947 40.3711C58.0117 40.3711 58.3877 40.2617 58.7295 40.0361C59.0645 39.8105 59.3652 39.4688 59.625 39.0107L60.4385 39.5576C60.124 40.125 59.7207 40.5488 59.2354 40.8359C58.7432 41.123 58.1826 41.2666 57.54 41.2666C56.583 41.2666 55.8174 40.9521 55.2295 40.3232C54.6416 39.6943 54.3477 38.874 54.3477 37.8486C54.3477 36.8711 54.6348 36.0713 55.2227 35.4424C55.8037 34.8203 56.5557 34.5059 57.4717 34.5059C58.3945 34.5059 59.126 34.8066 59.666 35.3945C60.2061 35.9893 60.4795 36.7959 60.4795 37.8213V38.0332ZM66.8984 39.5166V40.7607C66.6113 40.9316 66.2969 41.0615 65.9414 41.1436C65.5859 41.2256 65.21 41.2666 64.7998 41.2666C63.8291 41.2666 63.0498 40.9658 62.4619 40.3506C61.874 39.7354 61.5801 38.9287 61.5801 37.9307C61.5801 36.9326 61.8809 36.1123 62.4961 35.4766C63.1045 34.8408 63.8838 34.5195 64.8408 34.5195C65.1826 34.5195 65.5244 34.5605 65.8525 34.6289C66.1807 34.7041 66.4951 34.8135 66.7891 34.9502V36.0986C66.5156 35.9209 66.2285 35.791 65.9414 35.6953C65.6475 35.5996 65.3535 35.5518 65.0527 35.5518C64.3486 35.5518 63.7881 35.7773 63.3643 36.2148C62.9404 36.6523 62.7285 37.2402 62.7285 37.9648C62.7285 38.6074 62.9404 39.1475 63.3643 39.5781C63.7881 40.0156 64.3281 40.2275 64.9707 40.2275C65.292 40.2275 65.6064 40.1729 65.9209 40.0566C66.2285 39.9473 66.5566 39.7627 66.8984 39.5166ZM68.5527 35.627H67.4043V34.7451H68.5527V32.2227H69.6465V34.7451H70.7949V35.627H69.6465V41H68.5527V35.627ZM76.7695 37.8896C76.7695 38.5527 76.9883 39.1133 77.4326 39.5713C77.8701 40.0293 78.4102 40.2549 79.0391 40.2549C79.6611 40.2549 80.1943 40.0293 80.6318 39.5713C81.0693 39.1133 81.2881 38.5527 81.2881 37.8896C81.2881 37.2334 81.0693 36.6729 80.6318 36.2148C80.1943 35.7568 79.6611 35.5244 79.0391 35.5244C78.4033 35.5244 77.8633 35.7568 77.4258 36.2148C76.9883 36.6729 76.7695 37.2334 76.7695 37.8896ZM75.6348 37.8896C75.6348 37.4316 75.7168 37.001 75.8877 36.5908C76.0518 36.1807 76.2979 35.8184 76.626 35.4971C76.9473 35.1826 77.3164 34.9365 77.7266 34.7725C78.1367 34.6084 78.5742 34.5195 79.0391 34.5195C79.4902 34.5195 79.9209 34.6084 80.3311 34.7725C80.7412 34.9434 81.1104 35.1895 81.4453 35.5107C81.7666 35.8252 82.0127 36.1875 82.1836 36.5977C82.3477 37.0078 82.4365 37.4385 82.4365 37.8896C82.4365 38.3477 82.3477 38.7783 82.1836 39.1816C82.0127 39.585 81.7666 39.9404 81.4453 40.2549C81.1104 40.583 80.7344 40.8359 80.3242 41.0068C79.9141 41.1846 79.4834 41.2666 79.0391 41.2666C78.5742 41.2666 78.1367 41.1846 77.7266 41.0137C77.3164 40.8428 76.9473 40.5967 76.626 40.2754C76.2979 39.9473 76.0518 39.585 75.8877 39.1816C75.7168 38.7852 75.6348 38.3545 75.6348 37.8896ZM84.1113 41V34.7451H85.1572V35.709C85.4238 35.3125 85.7451 35.0117 86.1279 34.8135C86.5039 34.6221 86.9414 34.5195 87.4404 34.5195C88.1787 34.5195 88.7529 34.7178 89.1699 35.1074C89.5801 35.5039 89.792 36.0439 89.792 36.7412V41H88.6982V37.3154C88.6982 36.6865 88.5615 36.2148 88.2949 35.9072C88.0283 35.5996 87.6182 35.4424 87.0645 35.4424C86.7432 35.4424 86.4492 35.5039 86.1895 35.6201C85.9297 35.7363 85.7109 35.9004 85.54 36.1123C85.4033 36.2764 85.3076 36.4678 85.2529 36.6729C85.1982 36.8848 85.1709 37.2471 85.1709 37.7666V41H84.1113ZM96.3545 37.165C96.3135 36.6182 96.1289 36.1943 95.8008 35.8936C95.4727 35.5928 95.0215 35.4424 94.4473 35.4424C93.9277 35.4424 93.4902 35.5996 93.1484 35.9141C92.7998 36.2285 92.6016 36.6455 92.5469 37.165H96.3545ZM97.5029 38.0332H92.5469V38.1289C92.5469 38.7988 92.7383 39.3457 93.1211 39.7559C93.5039 40.166 94.0029 40.3711 94.6182 40.3711C95.0352 40.3711 95.4111 40.2617 95.7529 40.0361C96.0879 39.8105 96.3887 39.4688 96.6484 39.0107L97.4619 39.5576C97.1475 40.125 96.7441 40.5488 96.2588 40.8359C95.7666 41.123 95.2061 41.2666 94.5635 41.2666C93.6064 41.2666 92.8408 40.9521 92.2529 40.3232C91.665 39.6943 91.3711 38.874 91.3711 37.8486C91.3711 36.8711 91.6582 36.0713 92.2461 35.4424C92.8271 34.8203 93.5791 34.5059 94.4951 34.5059C95.418 34.5059 96.1494 34.8066 96.6895 35.3945C97.2295 35.9893 97.5029 36.7959 97.5029 37.8213V38.0332ZM103.881 37.8896C103.881 38.5527 104.1 39.1133 104.544 39.5713C104.981 40.0293 105.521 40.2549 106.15 40.2549C106.772 40.2549 107.306 40.0293 107.743 39.5713C108.181 39.1133 108.399 38.5527 108.399 37.8896C108.399 37.2334 108.181 36.6729 107.743 36.2148C107.306 35.7568 106.772 35.5244 106.15 35.5244C105.515 35.5244 104.975 35.7568 104.537 36.2148C104.1 36.6729 103.881 37.2334 103.881 37.8896ZM102.746 37.8896C102.746 37.4316 102.828 37.001 102.999 36.5908C103.163 36.1807 103.409 35.8184 103.737 35.4971C104.059 35.1826 104.428 34.9365 104.838 34.7725C105.248 34.6084 105.686 34.5195 106.15 34.5195C106.602 34.5195 107.032 34.6084 107.442 34.7725C107.853 34.9434 108.222 35.1895 108.557 35.5107C108.878 35.8252 109.124 36.1875 109.295 36.5977C109.459 37.0078 109.548 37.4385 109.548 37.8896C109.548 38.3477 109.459 38.7783 109.295 39.1816C109.124 39.585 108.878 39.9404 108.557 40.2549C108.222 40.583 107.846 40.8359 107.436 41.0068C107.025 41.1846 106.595 41.2666 106.15 41.2666C105.686 41.2666 105.248 41.1846 104.838 41.0137C104.428 40.8428 104.059 40.5967 103.737 40.2754C103.409 39.9473 103.163 39.585 102.999 39.1816C102.828 38.7852 102.746 38.3545 102.746 37.8896ZM111.503 41V35.627H110.3V34.7451H111.503V32.9336C111.503 31.8945 111.633 31.1973 111.893 30.8281C112.152 30.459 112.624 30.2744 113.308 30.2744C113.472 30.2744 113.636 30.2881 113.786 30.3086C113.937 30.3359 114.087 30.3701 114.23 30.418V31.5254C114.094 31.4502 113.95 31.3955 113.813 31.3545C113.677 31.3203 113.533 31.2998 113.39 31.2998C113.075 31.2998 112.856 31.4023 112.74 31.6006C112.617 31.8057 112.562 32.2979 112.562 33.0771V34.7451H114.23V35.627H112.59V41H111.503ZM119.146 44.0488L120.841 40.3848L118.387 34.7451H119.624L121.442 39.2363L123.37 34.7451H124.546L120.349 44.0488H119.146ZM126.193 37.8896C126.193 38.5527 126.412 39.1133 126.856 39.5713C127.294 40.0293 127.834 40.2549 128.463 40.2549C129.085 40.2549 129.618 40.0293 130.056 39.5713C130.493 39.1133 130.712 38.5527 130.712 37.8896C130.712 37.2334 130.493 36.6729 130.056 36.2148C129.618 35.7568 129.085 35.5244 128.463 35.5244C127.827 35.5244 127.287 35.7568 126.85 36.2148C126.412 36.6729 126.193 37.2334 126.193 37.8896ZM125.059 37.8896C125.059 37.4316 125.141 37.001 125.312 36.5908C125.476 36.1807 125.722 35.8184 126.05 35.4971C126.371 35.1826 126.74 34.9365 127.15 34.7725C127.561 34.6084 127.998 34.5195 128.463 34.5195C128.914 34.5195 129.345 34.6084 129.755 34.7725C130.165 34.9434 130.534 35.1895 130.869 35.5107C131.19 35.8252 131.437 36.1875 131.607 36.5977C131.771 37.0078 131.86 37.4385 131.86 37.8896C131.86 38.3477 131.771 38.7783 131.607 39.1816C131.437 39.585 131.19 39.9404 130.869 40.2549C130.534 40.583 130.158 40.8359 129.748 41.0068C129.338 41.1846 128.907 41.2666 128.463 41.2666C127.998 41.2666 127.561 41.1846 127.15 41.0137C126.74 40.8428 126.371 40.5967 126.05 40.2754C125.722 39.9473 125.476 39.585 125.312 39.1816C125.141 38.7852 125.059 38.3545 125.059 37.8896ZM134.54 34.7451V37.8213C134.54 38.7236 134.67 39.3525 134.937 39.708C135.203 40.0635 135.654 40.2412 136.29 40.2412C136.919 40.2412 137.37 40.0703 137.63 39.7148C137.89 39.3594 138.026 38.7305 138.026 37.8213V34.7451H139.12V38.3955C139.12 39.3389 138.874 40.0566 138.396 40.542C137.91 41.0273 137.199 41.2666 136.263 41.2666C135.333 41.2666 134.622 41.0273 134.144 40.5352C133.658 40.0498 133.419 39.3389 133.419 38.3955V34.7451H134.54ZM141.205 41V34.7451H142.155V36.0439C142.442 35.5039 142.743 35.1143 143.071 34.8818C143.393 34.6494 143.789 34.5332 144.254 34.5332C144.377 34.5332 144.5 34.5469 144.623 34.5674C144.739 34.5879 144.855 34.6152 144.979 34.6562L144.623 35.6201C144.5 35.5791 144.384 35.5518 144.274 35.5312C144.165 35.5107 144.056 35.4971 143.96 35.4971C143.393 35.4971 142.969 35.7021 142.688 36.1123C142.401 36.5225 142.265 37.1309 142.265 37.9512V41H141.205ZM155.027 37.9307C155.027 37.2266 154.829 36.6592 154.446 36.2285C154.063 35.7979 153.558 35.5791 152.942 35.5791C152.3 35.5791 151.794 35.7773 151.438 36.1738C151.076 36.5703 150.898 37.124 150.898 37.835C150.898 38.5938 151.076 39.1748 151.438 39.585C151.801 39.9951 152.313 40.2002 152.983 40.2002C153.619 40.2002 154.118 40.002 154.48 39.6055C154.843 39.209 155.027 38.6484 155.027 37.9307ZM156.066 34.7451V41H155.027V39.8652C154.774 40.3232 154.453 40.6719 154.063 40.9111C153.674 41.1504 153.236 41.2666 152.758 41.2666C151.855 41.2666 151.131 40.959 150.584 40.3438C150.037 39.7285 149.764 38.9082 149.764 37.8896C149.764 36.8643 150.03 36.0439 150.563 35.4355C151.097 34.8271 151.808 34.5195 152.703 34.5195C153.223 34.5195 153.681 34.6426 154.063 34.875C154.446 35.1074 154.761 35.4561 155 35.9209V34.7451H156.066ZM159.245 37.8896C159.245 38.5938 159.437 39.1543 159.826 39.5781C160.209 40.002 160.722 40.2139 161.364 40.2139C161.986 40.2139 162.479 40.0225 162.834 39.6328C163.189 39.25 163.374 38.71 163.374 38.0195C163.374 37.2539 163.189 36.6455 162.834 36.208C162.479 35.7705 161.979 35.5518 161.344 35.5518C160.688 35.5518 160.175 35.7637 159.806 36.1738C159.43 36.5908 159.245 37.165 159.245 37.8896ZM158.213 44.0488V34.7451H159.231V35.9209C159.471 35.4697 159.792 35.1279 160.188 34.8818C160.585 34.6426 161.022 34.5195 161.515 34.5195C162.417 34.5195 163.142 34.8271 163.688 35.4424C164.235 36.0576 164.509 36.8779 164.509 37.8896C164.509 38.9287 164.235 39.749 163.702 40.3574C163.169 40.9658 162.451 41.2666 161.556 41.2666C161.036 41.2666 160.592 41.1504 160.209 40.918C159.826 40.6855 159.512 40.3301 159.272 39.8652V44.0488H158.213ZM167.257 37.8896C167.257 38.5938 167.448 39.1543 167.838 39.5781C168.221 40.002 168.733 40.2139 169.376 40.2139C169.998 40.2139 170.49 40.0225 170.846 39.6328C171.201 39.25 171.386 38.71 171.386 38.0195C171.386 37.2539 171.201 36.6455 170.846 36.208C170.49 35.7705 169.991 35.5518 169.355 35.5518C168.699 35.5518 168.187 35.7637 167.817 36.1738C167.441 36.5908 167.257 37.165 167.257 37.8896ZM166.225 44.0488V34.7451H167.243V35.9209C167.482 35.4697 167.804 35.1279 168.2 34.8818C168.597 34.6426 169.034 34.5195 169.526 34.5195C170.429 34.5195 171.153 34.8271 171.7 35.4424C172.247 36.0576 172.521 36.8779 172.521 37.8896C172.521 38.9287 172.247 39.749 171.714 40.3574C171.181 40.9658 170.463 41.2666 169.567 41.2666C169.048 41.2666 168.604 41.1504 168.221 40.918C167.838 40.6855 167.523 40.3301 167.284 39.8652V44.0488H166.225ZM173.573 39.9473L174.489 39.332C174.66 39.667 174.879 39.9199 175.146 40.084C175.405 40.248 175.72 40.3301 176.082 40.3301C176.431 40.3301 176.711 40.248 176.93 40.0703C177.148 39.8994 177.258 39.6738 177.258 39.3867C177.258 39.168 177.183 38.9902 177.032 38.8398C176.882 38.6963 176.629 38.5596 176.273 38.4365C176.232 38.4229 176.178 38.4023 176.096 38.375C174.571 37.8555 173.812 37.1992 173.812 36.4062C173.812 35.8525 174.018 35.4014 174.428 35.0459C174.838 34.6973 175.371 34.5195 176.027 34.5195C176.567 34.5195 177.032 34.6289 177.422 34.8477C177.805 35.0664 178.085 35.3672 178.256 35.7637L177.388 36.2969C177.258 36.0098 177.066 35.791 176.82 35.6338C176.574 35.4834 176.287 35.4014 175.959 35.4014C175.645 35.4014 175.385 35.4902 175.187 35.668C174.988 35.8457 174.893 36.0645 174.893 36.3379C174.893 36.7207 175.303 37.042 176.137 37.3018C176.287 37.3564 176.41 37.3906 176.506 37.418C177.183 37.6367 177.654 37.8896 177.921 38.1699C178.188 38.4502 178.324 38.8193 178.324 39.2773C178.324 39.8721 178.112 40.3506 177.688 40.7197C177.265 41.0889 176.718 41.2666 176.041 41.2666C175.453 41.2666 174.961 41.1572 174.551 40.9385C174.141 40.7197 173.819 40.3916 173.573 39.9473ZM184.23 35.627H183.082V34.7451H184.23V32.2227H185.324V34.7451H186.473V35.627H185.324V41H184.23V35.627ZM188.318 37.8896C188.318 38.5527 188.537 39.1133 188.981 39.5713C189.419 40.0293 189.959 40.2549 190.588 40.2549C191.21 40.2549 191.743 40.0293 192.181 39.5713C192.618 39.1133 192.837 38.5527 192.837 37.8896C192.837 37.2334 192.618 36.6729 192.181 36.2148C191.743 35.7568 191.21 35.5244 190.588 35.5244C189.952 35.5244 189.412 35.7568 188.975 36.2148C188.537 36.6729 188.318 37.2334 188.318 37.8896ZM187.184 37.8896C187.184 37.4316 187.266 37.001 187.437 36.5908C187.601 36.1807 187.847 35.8184 188.175 35.4971C188.496 35.1826 188.865 34.9365 189.275 34.7725C189.686 34.6084 190.123 34.5195 190.588 34.5195C191.039 34.5195 191.47 34.6084 191.88 34.7725C192.29 34.9434 192.659 35.1895 192.994 35.5107C193.315 35.8252 193.562 36.1875 193.732 36.5977C193.896 37.0078 193.985 37.4385 193.985 37.8896C193.985 38.3477 193.896 38.7783 193.732 39.1816C193.562 39.585 193.315 39.9404 192.994 40.2549C192.659 40.583 192.283 40.8359 191.873 41.0068C191.463 41.1846 191.032 41.2666 190.588 41.2666C190.123 41.2666 189.686 41.1846 189.275 41.0137C188.865 40.8428 188.496 40.5967 188.175 40.2754C187.847 39.9473 187.601 39.585 187.437 39.1816C187.266 38.7852 187.184 38.3545 187.184 37.8896ZM199.126 39.9473L200.042 39.332C200.213 39.667 200.432 39.9199 200.698 40.084C200.958 40.248 201.272 40.3301 201.635 40.3301C201.983 40.3301 202.264 40.248 202.482 40.0703C202.701 39.8994 202.811 39.6738 202.811 39.3867C202.811 39.168 202.735 38.9902 202.585 38.8398C202.435 38.6963 202.182 38.5596 201.826 38.4365C201.785 38.4229 201.73 38.4023 201.648 38.375C200.124 37.8555 199.365 37.1992 199.365 36.4062C199.365 35.8525 199.57 35.4014 199.98 35.0459C200.391 34.6973 200.924 34.5195 201.58 34.5195C202.12 34.5195 202.585 34.6289 202.975 34.8477C203.357 35.0664 203.638 35.3672 203.809 35.7637L202.94 36.2969C202.811 36.0098 202.619 35.791 202.373 35.6338C202.127 35.4834 201.84 35.4014 201.512 35.4014C201.197 35.4014 200.938 35.4902 200.739 35.668C200.541 35.8457 200.445 36.0645 200.445 36.3379C200.445 36.7207 200.855 37.042 201.689 37.3018C201.84 37.3564 201.963 37.3906 202.059 37.418C202.735 37.6367 203.207 37.8896 203.474 38.1699C203.74 38.4502 203.877 38.8193 203.877 39.2773C203.877 39.8721 203.665 40.3506 203.241 40.7197C202.817 41.0889 202.271 41.2666 201.594 41.2666C201.006 41.2666 200.514 41.1572 200.104 40.9385C199.693 40.7197 199.372 40.3916 199.126 39.9473ZM205.292 31.7305C205.292 31.5186 205.367 31.334 205.518 31.1836C205.668 31.0332 205.859 30.9512 206.078 30.9512C206.29 30.9512 206.475 31.0332 206.625 31.1836C206.775 31.3408 206.857 31.5254 206.857 31.7441C206.857 31.9629 206.782 32.1406 206.632 32.291C206.481 32.4414 206.297 32.5166 206.078 32.5166C205.859 32.5166 205.668 32.4414 205.518 32.291C205.367 32.1406 205.292 31.9561 205.292 31.7305ZM205.545 41V34.7451H206.625V41H205.545ZM217.59 41V37.3154C217.59 36.6865 217.46 36.2148 217.207 35.9072C216.947 35.5996 216.558 35.4424 216.031 35.4424C215.744 35.4424 215.478 35.5039 215.231 35.6201C214.985 35.7363 214.78 35.9004 214.616 36.1123C214.493 36.2764 214.404 36.4678 214.35 36.6865C214.295 36.9053 214.268 37.2676 214.268 37.7666V41H213.235V37.3154C213.235 36.6865 213.105 36.2148 212.853 35.9072C212.593 35.5996 212.203 35.4424 211.677 35.4424C211.39 35.4424 211.116 35.5039 210.87 35.6201C210.624 35.7363 210.412 35.9004 210.248 36.1123C210.125 36.2764 210.043 36.4609 209.988 36.666C209.934 36.8779 209.913 37.2471 209.913 37.7666V41H208.881V34.7451H209.927V35.709C210.187 35.3125 210.494 35.0117 210.856 34.8135C211.212 34.6221 211.629 34.5195 212.101 34.5195C212.606 34.5195 213.037 34.6289 213.393 34.8477C213.748 35.0664 214.015 35.3809 214.199 35.791C214.466 35.3672 214.78 35.0459 215.149 34.834C215.519 34.6289 215.942 34.5195 216.428 34.5195C217.125 34.5195 217.665 34.7178 218.062 35.1074C218.451 35.5039 218.649 36.0439 218.649 36.7412V41H217.59ZM221.767 34.7451V37.8213C221.767 38.7236 221.896 39.3525 222.163 39.708C222.43 40.0635 222.881 40.2412 223.517 40.2412C224.146 40.2412 224.597 40.0703 224.856 39.7148C225.116 39.3594 225.253 38.7305 225.253 37.8213V34.7451H226.347V38.3955C226.347 39.3389 226.101 40.0566 225.622 40.542C225.137 41.0273 224.426 41.2666 223.489 41.2666C222.56 41.2666 221.849 41.0273 221.37 40.5352C220.885 40.0498 220.646 39.3389 220.646 38.3955V34.7451H221.767ZM228.473 41V30.4043H229.566V41H228.473ZM236.594 37.9307C236.594 37.2266 236.396 36.6592 236.013 36.2285C235.63 35.7979 235.124 35.5791 234.509 35.5791C233.866 35.5791 233.36 35.7773 233.005 36.1738C232.643 36.5703 232.465 37.124 232.465 37.835C232.465 38.5938 232.643 39.1748 233.005 39.585C233.367 39.9951 233.88 40.2002 234.55 40.2002C235.186 40.2002 235.685 40.002 236.047 39.6055C236.409 39.209 236.594 38.6484 236.594 37.9307ZM237.633 34.7451V41H236.594V39.8652C236.341 40.3232 236.02 40.6719 235.63 40.9111C235.24 41.1504 234.803 41.2666 234.324 41.2666C233.422 41.2666 232.697 40.959 232.15 40.3438C231.604 39.7285 231.33 38.9082 231.33 37.8896C231.33 36.8643 231.597 36.0439 232.13 35.4355C232.663 34.8271 233.374 34.5195 234.27 34.5195C234.789 34.5195 235.247 34.6426 235.63 34.875C236.013 35.1074 236.327 35.4561 236.566 35.9209V34.7451H237.633ZM239.943 35.627H238.795V34.7451H239.943V32.2227H241.037V34.7451H242.186V35.627H241.037V41H239.943V35.627ZM247.839 37.165C247.798 36.6182 247.613 36.1943 247.285 35.8936C246.957 35.5928 246.506 35.4424 245.932 35.4424C245.412 35.4424 244.975 35.5996 244.633 35.9141C244.284 36.2285 244.086 36.6455 244.031 37.165H247.839ZM248.987 38.0332H244.031V38.1289C244.031 38.7988 244.223 39.3457 244.605 39.7559C244.988 40.166 245.487 40.3711 246.103 40.3711C246.52 40.3711 246.896 40.2617 247.237 40.0361C247.572 39.8105 247.873 39.4688 248.133 39.0107L248.946 39.5576C248.632 40.125 248.229 40.5488 247.743 40.8359C247.251 41.123 246.69 41.2666 246.048 41.2666C245.091 41.2666 244.325 40.9521 243.737 40.3232C243.149 39.6943 242.855 38.874 242.855 37.8486C242.855 36.8711 243.143 36.0713 243.73 35.4424C244.312 34.8203 245.063 34.5059 245.979 34.5059C246.902 34.5059 247.634 34.8066 248.174 35.3945C248.714 35.9893 248.987 36.7959 248.987 37.8213V38.0332Z" fill="#475569"/>
<path d="M21 82C21 86.9706 16.9706 91 12 91C7.02944 91 3 86.9706 3 82C3 77.0294 7.02944 73 12 73C16.9706 73 21 77.0294 21 82Z" fill="#017B00"/>
<circle cx="12" cy="82" r="3" fill="white"/>
<rect x="11" y="98" width="2" height="38" rx="1" fill="#017B00"/>
<path d="M36.6562 85.7109L38.1406 85.0234C38.2812 85.5339 38.5391 85.9245 38.9141 86.1953C39.2891 86.4609 39.7682 86.5938 40.3516 86.5938C40.9036 86.5938 41.3411 86.4401 41.6641 86.1328C41.9922 85.8255 42.1562 85.4141 42.1562 84.8984C42.1562 84.2266 41.599 83.6276 40.4844 83.1016C40.3281 83.0234 40.2083 82.9661 40.125 82.9297C38.8646 82.3151 38.0234 81.7604 37.6016 81.2656C37.1849 80.7656 36.9766 80.1562 36.9766 79.4375C36.9766 78.5052 37.2917 77.75 37.9219 77.1719C38.5573 76.5938 39.388 76.3047 40.4141 76.3047C41.2578 76.3047 41.9635 76.4688 42.5312 76.7969C43.099 77.1198 43.4922 77.5859 43.7109 78.1953L42.2578 78.9453C42.0286 78.5859 41.776 78.3229 41.5 78.1562C41.2292 77.9896 40.9167 77.9062 40.5625 77.9062C40.0625 77.9062 39.6641 78.0365 39.3672 78.2969C39.0755 78.5573 38.9297 78.9062 38.9297 79.3438C38.9297 80.0312 39.5755 80.6719 40.8672 81.2656C40.9661 81.3125 41.0443 81.349 41.1016 81.375C42.2318 81.8958 43.0078 82.4062 43.4297 82.9062C43.8516 83.401 44.0625 84.0208 44.0625 84.7656C44.0625 85.849 43.7214 86.7109 43.0391 87.3516C42.3568 87.987 41.4349 88.3047 40.2734 88.3047C39.2995 88.3047 38.5 88.0807 37.875 87.6328C37.2552 87.1849 36.849 86.5443 36.6562 85.7109ZM45.8047 77.3906C45.8047 77.1042 45.9089 76.8568 46.1172 76.6484C46.3307 76.4401 46.5833 76.3359 46.875 76.3359C47.1771 76.3359 47.4271 76.4375 47.625 76.6406C47.8281 76.8385 47.9297 77.0885 47.9297 77.3906C47.9297 77.6927 47.8281 77.9479 47.625 78.1562C47.4219 78.3594 47.1719 78.4609 46.875 78.4609C46.5833 78.4609 46.3307 78.3568 46.1172 78.1484C45.9089 77.9349 45.8047 77.6823 45.8047 77.3906ZM46.0312 88V80.5938H47.7266V88H46.0312ZM51.8516 88H50.1562V80.5938H51.75V81.8047C52.0885 81.2891 52.4714 80.9141 52.8984 80.6797C53.3307 80.4401 53.8385 80.3203 54.4219 80.3203C55 80.3203 55.4792 80.4427 55.8594 80.6875C56.2396 80.9271 56.5286 81.2943 56.7266 81.7891C57.1172 81.2786 57.5312 80.9062 57.9688 80.6719C58.4115 80.4375 58.9141 80.3203 59.4766 80.3203C59.9661 80.3203 60.3932 80.4115 60.7578 80.5938C61.1224 80.7708 61.4062 81.0312 61.6094 81.375C61.7031 81.5365 61.7708 81.7292 61.8125 81.9531C61.8594 82.1771 61.8828 82.4974 61.8828 82.9141V83.5078V88H60.1875V84.1953C60.1875 83.2005 60.0807 82.5469 59.8672 82.2344C59.6589 81.9167 59.2839 81.7578 58.7422 81.7578C58.0755 81.7578 57.599 81.9714 57.3125 82.3984C57.0312 82.8203 56.8906 83.5625 56.8906 84.625V88H55.1797V84.1953C55.1797 83.2786 55.0677 82.6432 54.8438 82.2891C54.625 81.9349 54.2448 81.7578 53.7031 81.7578C53.3698 81.7578 53.0651 81.8333 52.7891 81.9844C52.513 82.1354 52.2943 82.3438 52.1328 82.6094C52.0286 82.7812 51.9557 82.9922 51.9141 83.2422C51.8724 83.4922 51.8516 83.9531 51.8516 84.625V88ZM65.7969 80.5938V84.7656C65.7969 85.4844 65.9453 86 66.2422 86.3125C66.5391 86.625 67.0208 86.7812 67.6875 86.7812C68.3542 86.7812 68.8359 86.625 69.1328 86.3125C69.4297 86 69.5781 85.4844 69.5781 84.7656V80.5938H71.2734V84.2578C71.2734 85.6745 70.9896 86.7031 70.4219 87.3438C69.8542 87.9844 68.9479 88.3047 67.7031 88.3047C66.4375 88.3047 65.5208 87.987 64.9531 87.3516C64.3854 86.7161 64.1016 85.6849 64.1016 84.2578V80.5938H65.7969ZM73.6406 88V75.8906H75.3359V88H73.6406ZM84.7344 88H83.0391V87.0391C82.737 87.4661 82.3828 87.7839 81.9766 87.9922C81.5755 88.2005 81.1146 88.3047 80.5938 88.3047C79.5469 88.3047 78.7214 87.9479 78.1172 87.2344C77.5182 86.5156 77.2188 85.5339 77.2188 84.2891C77.2188 83.1068 77.526 82.1536 78.1406 81.4297C78.7552 80.7005 79.5573 80.3359 80.5469 80.3359C81.151 80.3359 81.6667 80.4635 82.0938 80.7188C82.526 80.9688 82.8411 81.3307 83.0391 81.8047V80.5938H84.7344V88ZM83.0859 84.2734C83.0859 83.5078 82.9062 82.9115 82.5469 82.4844C82.1927 82.0573 81.6953 81.8438 81.0547 81.8438C80.4141 81.8438 79.9089 82.0651 79.5391 82.5078C79.1745 82.9453 78.9922 83.5547 78.9922 84.3359C78.9922 85.1224 79.1693 85.7292 79.5234 86.1562C79.8776 86.5833 80.3776 86.7969 81.0234 86.7969C81.6328 86.7969 82.1276 86.5651 82.5078 86.1016C82.8932 85.638 83.0859 85.0286 83.0859 84.2734ZM87.4766 88V82.0781H86.1797V80.5938H87.4766V77.7891H89.1719V80.5938H90.4688V82.0781H89.1719V88H87.4766ZM99.0703 84.5469H93.1484C93.1901 85.2396 93.3958 85.7812 93.7656 86.1719C94.1354 86.5573 94.6276 86.75 95.2422 86.75C95.7891 86.75 96.2448 86.6354 96.6094 86.4062C96.974 86.1771 97.2917 85.8073 97.5625 85.2969L98.9922 86.0938C98.5755 86.8385 98.0599 87.3932 97.4453 87.7578C96.8307 88.1224 96.1094 88.3047 95.2812 88.3047C94.0938 88.3047 93.1484 87.9427 92.4453 87.2188C91.7422 86.4948 91.3906 85.5286 91.3906 84.3203C91.3906 83.1589 91.7526 82.2057 92.4766 81.4609C93.2057 80.7109 94.1406 80.3359 95.2812 80.3359C96.474 80.3359 97.4036 80.6771 98.0703 81.3594C98.737 82.0417 99.0703 82.9974 99.0703 84.2266V84.5469ZM97.3125 83.4062C97.2448 82.875 97.0417 82.4714 96.7031 82.1953C96.3646 81.9141 95.901 81.7734 95.3125 81.7734C94.7552 81.7734 94.3073 81.9089 93.9688 82.1797C93.6302 82.4505 93.3932 82.8594 93.2578 83.4062H97.3125ZM107.672 81.4375H108.008C108.992 81.4375 109.646 81.3229 109.969 81.0938C110.292 80.8646 110.453 80.4583 110.453 79.875C110.453 79.2448 110.279 78.8021 109.93 78.5469C109.586 78.2865 108.945 78.1562 108.008 78.1562H107.672V81.4375ZM107.555 82.8828V88H105.812V76.5625H108.406C109.167 76.5625 109.755 76.612 110.172 76.7109C110.594 76.8099 110.953 76.974 111.25 77.2031C111.604 77.4792 111.878 77.8359 112.07 78.2734C112.263 78.7109 112.359 79.1901 112.359 79.7109C112.359 80.6276 112.138 81.3464 111.695 81.8672C111.253 82.3828 110.599 82.6927 109.734 82.7969L113.672 88H111.57L107.766 82.8828H107.555ZM121.492 84.5469H115.57C115.612 85.2396 115.818 85.7812 116.188 86.1719C116.557 86.5573 117.049 86.75 117.664 86.75C118.211 86.75 118.667 86.6354 119.031 86.4062C119.396 86.1771 119.714 85.8073 119.984 85.2969L121.414 86.0938C120.997 86.8385 120.482 87.3932 119.867 87.7578C119.253 88.1224 118.531 88.3047 117.703 88.3047C116.516 88.3047 115.57 87.9427 114.867 87.2188C114.164 86.4948 113.812 85.5286 113.812 84.3203C113.812 83.1589 114.174 82.2057 114.898 81.4609C115.628 80.7109 116.562 80.3359 117.703 80.3359C118.896 80.3359 119.826 80.6771 120.492 81.3594C121.159 82.0417 121.492 82.9974 121.492 84.2266V84.5469ZM119.734 83.4062C119.667 82.875 119.464 82.4714 119.125 82.1953C118.786 81.9141 118.323 81.7734 117.734 81.7734C117.177 81.7734 116.729 81.9089 116.391 82.1797C116.052 82.4505 115.815 82.8594 115.68 83.4062H119.734ZM128.586 84.2734C128.586 83.5078 128.406 82.9115 128.047 82.4844C127.693 82.0573 127.195 81.8438 126.555 81.8438C125.914 81.8438 125.409 82.0651 125.039 82.5078C124.674 82.9453 124.492 83.5547 124.492 84.3359C124.492 85.1224 124.669 85.7292 125.023 86.1562C125.378 86.5833 125.878 86.7969 126.523 86.7969C127.143 86.7969 127.641 86.5677 128.016 86.1094C128.396 85.651 128.586 85.0391 128.586 84.2734ZM130.234 91.4844H128.539V87.0391C128.237 87.4661 127.883 87.7839 127.477 87.9922C127.076 88.2005 126.615 88.3047 126.094 88.3047C125.047 88.3047 124.221 87.9479 123.617 87.2344C123.018 86.5156 122.719 85.5339 122.719 84.2891C122.719 83.1068 123.026 82.1536 123.641 81.4297C124.255 80.7005 125.057 80.3359 126.047 80.3359C126.651 80.3359 127.167 80.4635 127.594 80.7188C128.026 80.9688 128.341 81.3307 128.539 81.8047V80.5938H130.234V91.4844ZM134.219 80.5938V84.7656C134.219 85.4844 134.367 86 134.664 86.3125C134.961 86.625 135.443 86.7812 136.109 86.7812C136.776 86.7812 137.258 86.625 137.555 86.3125C137.852 86 138 85.4844 138 84.7656V80.5938H139.695V84.2578C139.695 85.6745 139.411 86.7031 138.844 87.3438C138.276 87.9844 137.37 88.3047 136.125 88.3047C134.859 88.3047 133.943 87.987 133.375 87.3516C132.807 86.7161 132.523 85.6849 132.523 84.2578V80.5938H134.219ZM149.117 84.5469H143.195C143.237 85.2396 143.443 85.7812 143.812 86.1719C144.182 86.5573 144.674 86.75 145.289 86.75C145.836 86.75 146.292 86.6354 146.656 86.4062C147.021 86.1771 147.339 85.8073 147.609 85.2969L149.039 86.0938C148.622 86.8385 148.107 87.3932 147.492 87.7578C146.878 88.1224 146.156 88.3047 145.328 88.3047C144.141 88.3047 143.195 87.9427 142.492 87.2188C141.789 86.4948 141.438 85.5286 141.438 84.3203C141.438 83.1589 141.799 82.2057 142.523 81.4609C143.253 80.7109 144.188 80.3359 145.328 80.3359C146.521 80.3359 147.451 80.6771 148.117 81.3594C148.784 82.0417 149.117 82.9974 149.117 84.2266V84.5469ZM147.359 83.4062C147.292 82.875 147.089 82.4714 146.75 82.1953C146.411 81.9141 145.948 81.7734 145.359 81.7734C144.802 81.7734 144.354 81.9089 144.016 82.1797C143.677 82.4505 143.44 82.8594 143.305 83.4062H147.359ZM150.039 86.6562L151.445 85.8906C151.549 86.2604 151.742 86.5417 152.023 86.7344C152.305 86.9271 152.667 87.0234 153.109 87.0234C153.49 87.0234 153.786 86.9375 154 86.7656C154.219 86.5885 154.328 86.349 154.328 86.0469C154.328 85.6458 153.943 85.3021 153.172 85.0156C152.911 84.9219 152.711 84.8438 152.57 84.7812C151.779 84.4531 151.224 84.1198 150.906 83.7812C150.594 83.4427 150.438 83.0312 150.438 82.5469C150.438 81.8854 150.695 81.349 151.211 80.9375C151.732 80.526 152.419 80.3203 153.273 80.3203C153.846 80.3203 154.336 80.4271 154.742 80.6406C155.154 80.849 155.453 81.1484 155.641 81.5391L154.438 82.3672C154.349 82.1328 154.193 81.9479 153.969 81.8125C153.75 81.6719 153.495 81.6016 153.203 81.6016C152.88 81.6016 152.62 81.6797 152.422 81.8359C152.229 81.987 152.133 82.1901 152.133 82.4453C152.133 82.8307 152.57 83.1823 153.445 83.5C153.721 83.599 153.935 83.6797 154.086 83.7422C154.768 84.013 155.255 84.3203 155.547 84.6641C155.844 85.0026 155.992 85.4271 155.992 85.9375C155.992 86.6771 155.724 87.2578 155.188 87.6797C154.651 88.0964 153.911 88.3047 152.969 88.3047C152.245 88.3047 151.643 88.1693 151.164 87.8984C150.685 87.6276 150.31 87.2135 150.039 86.6562ZM158.102 88V82.0781H156.805V80.5938H158.102V77.7891H159.797V80.5938H161.094V82.0781H159.797V88H158.102Z" fill="#1E293B"/>
<path d="M37.1621 100.992H38.3652V107.22C38.3652 108.231 38.5771 108.977 39.0078 109.448C39.4385 109.927 40.1152 110.159 41.0381 110.159C41.9541 110.159 42.6309 109.927 43.0615 109.448C43.4922 108.977 43.7109 108.231 43.7109 107.22V100.992H44.9209V107.22C44.9209 108.573 44.5928 109.592 43.9502 110.262C43.3076 110.932 42.3369 111.267 41.0381 111.267C39.7393 111.267 38.7686 110.932 38.126 110.262C37.4834 109.592 37.1621 108.573 37.1621 107.22V100.992ZM46.5205 109.947L47.4365 109.332C47.6074 109.667 47.8262 109.92 48.0928 110.084C48.3525 110.248 48.667 110.33 49.0293 110.33C49.3779 110.33 49.6582 110.248 49.877 110.07C50.0957 109.899 50.2051 109.674 50.2051 109.387C50.2051 109.168 50.1299 108.99 49.9795 108.84C49.8291 108.696 49.5762 108.56 49.2207 108.437C49.1797 108.423 49.125 108.402 49.043 108.375C47.5186 107.855 46.7598 107.199 46.7598 106.406C46.7598 105.853 46.9648 105.401 47.375 105.046C47.7852 104.697 48.3184 104.52 48.9746 104.52C49.5146 104.52 49.9795 104.629 50.3691 104.848C50.752 105.066 51.0322 105.367 51.2031 105.764L50.335 106.297C50.2051 106.01 50.0137 105.791 49.7676 105.634C49.5215 105.483 49.2344 105.401 48.9062 105.401C48.5918 105.401 48.332 105.49 48.1338 105.668C47.9355 105.846 47.8398 106.064 47.8398 106.338C47.8398 106.721 48.25 107.042 49.084 107.302C49.2344 107.356 49.3574 107.391 49.4531 107.418C50.1299 107.637 50.6016 107.89 50.8682 108.17C51.1348 108.45 51.2715 108.819 51.2715 109.277C51.2715 109.872 51.0596 110.351 50.6357 110.72C50.2119 111.089 49.665 111.267 48.9883 111.267C48.4004 111.267 47.9082 111.157 47.498 110.938C47.0879 110.72 46.7666 110.392 46.5205 109.947ZM57.3213 107.165C57.2803 106.618 57.0957 106.194 56.7676 105.894C56.4395 105.593 55.9883 105.442 55.4141 105.442C54.8945 105.442 54.457 105.6 54.1152 105.914C53.7666 106.229 53.5684 106.646 53.5137 107.165H57.3213ZM58.4697 108.033H53.5137V108.129C53.5137 108.799 53.7051 109.346 54.0879 109.756C54.4707 110.166 54.9697 110.371 55.585 110.371C56.002 110.371 56.3779 110.262 56.7197 110.036C57.0547 109.811 57.3555 109.469 57.6152 109.011L58.4287 109.558C58.1143 110.125 57.7109 110.549 57.2256 110.836C56.7334 111.123 56.1729 111.267 55.5303 111.267C54.5732 111.267 53.8076 110.952 53.2197 110.323C52.6318 109.694 52.3379 108.874 52.3379 107.849C52.3379 106.871 52.625 106.071 53.2129 105.442C53.7939 104.82 54.5459 104.506 55.4619 104.506C56.3848 104.506 57.1162 104.807 57.6562 105.395C58.1963 105.989 58.4697 106.796 58.4697 107.821V108.033ZM63.5557 109.947L64.4717 109.332C64.6426 109.667 64.8613 109.92 65.1279 110.084C65.3877 110.248 65.7021 110.33 66.0645 110.33C66.4131 110.33 66.6934 110.248 66.9121 110.07C67.1309 109.899 67.2402 109.674 67.2402 109.387C67.2402 109.168 67.165 108.99 67.0146 108.84C66.8643 108.696 66.6113 108.56 66.2559 108.437C66.2148 108.423 66.1602 108.402 66.0781 108.375C64.5537 107.855 63.7949 107.199 63.7949 106.406C63.7949 105.853 64 105.401 64.4102 105.046C64.8203 104.697 65.3535 104.52 66.0098 104.52C66.5498 104.52 67.0146 104.629 67.4043 104.848C67.7871 105.066 68.0674 105.367 68.2383 105.764L67.3701 106.297C67.2402 106.01 67.0488 105.791 66.8027 105.634C66.5566 105.483 66.2695 105.401 65.9414 105.401C65.627 105.401 65.3672 105.49 65.1689 105.668C64.9707 105.846 64.875 106.064 64.875 106.338C64.875 106.721 65.2852 107.042 66.1191 107.302C66.2695 107.356 66.3926 107.391 66.4883 107.418C67.165 107.637 67.6367 107.89 67.9033 108.17C68.1699 108.45 68.3066 108.819 68.3066 109.277C68.3066 109.872 68.0947 110.351 67.6709 110.72C67.2471 111.089 66.7002 111.267 66.0234 111.267C65.4355 111.267 64.9434 111.157 64.5332 110.938C64.123 110.72 63.8018 110.392 63.5557 109.947ZM69.7217 101.73C69.7217 101.519 69.7969 101.334 69.9473 101.184C70.0977 101.033 70.2891 100.951 70.5078 100.951C70.7197 100.951 70.9043 101.033 71.0547 101.184C71.2051 101.341 71.2871 101.525 71.2871 101.744C71.2871 101.963 71.2119 102.141 71.0615 102.291C70.9111 102.441 70.7266 102.517 70.5078 102.517C70.2891 102.517 70.0977 102.441 69.9473 102.291C69.7969 102.141 69.7217 101.956 69.7217 101.73ZM69.9746 111V104.745H71.0547V111H69.9746ZM82.0195 111V107.315C82.0195 106.687 81.8896 106.215 81.6367 105.907C81.377 105.6 80.9873 105.442 80.4609 105.442C80.1738 105.442 79.9072 105.504 79.6611 105.62C79.415 105.736 79.21 105.9 79.0459 106.112C78.9229 106.276 78.834 106.468 78.7793 106.687C78.7246 106.905 78.6973 107.268 78.6973 107.767V111H77.665V107.315C77.665 106.687 77.5352 106.215 77.2822 105.907C77.0225 105.6 76.6328 105.442 76.1064 105.442C75.8193 105.442 75.5459 105.504 75.2998 105.62C75.0537 105.736 74.8418 105.9 74.6777 106.112C74.5547 106.276 74.4727 106.461 74.418 106.666C74.3633 106.878 74.3428 107.247 74.3428 107.767V111H73.3105V104.745H74.3564V105.709C74.6162 105.312 74.9238 105.012 75.2861 104.813C75.6416 104.622 76.0586 104.52 76.5303 104.52C77.0361 104.52 77.4668 104.629 77.8223 104.848C78.1777 105.066 78.4443 105.381 78.6289 105.791C78.8955 105.367 79.21 105.046 79.5791 104.834C79.9482 104.629 80.3721 104.52 80.8574 104.52C81.5547 104.52 82.0947 104.718 82.4912 105.107C82.8809 105.504 83.0791 106.044 83.0791 106.741V111H82.0195ZM86.1963 104.745V107.821C86.1963 108.724 86.3262 109.353 86.5928 109.708C86.8594 110.063 87.3105 110.241 87.9463 110.241C88.5752 110.241 89.0264 110.07 89.2861 109.715C89.5459 109.359 89.6826 108.73 89.6826 107.821V104.745H90.7764V108.396C90.7764 109.339 90.5303 110.057 90.0518 110.542C89.5664 111.027 88.8555 111.267 87.9189 111.267C86.9893 111.267 86.2783 111.027 85.7998 110.535C85.3145 110.05 85.0752 109.339 85.0752 108.396V104.745H86.1963ZM92.9023 111V100.404H93.9961V111H92.9023ZM101.023 107.931C101.023 107.227 100.825 106.659 100.442 106.229C100.06 105.798 99.5537 105.579 98.9385 105.579C98.2959 105.579 97.79 105.777 97.4346 106.174C97.0723 106.57 96.8945 107.124 96.8945 107.835C96.8945 108.594 97.0723 109.175 97.4346 109.585C97.7969 109.995 98.3096 110.2 98.9795 110.2C99.6152 110.2 100.114 110.002 100.477 109.605C100.839 109.209 101.023 108.648 101.023 107.931ZM102.062 104.745V111H101.023V109.865C100.771 110.323 100.449 110.672 100.06 110.911C99.6699 111.15 99.2324 111.267 98.7539 111.267C97.8516 111.267 97.127 110.959 96.5801 110.344C96.0332 109.729 95.7598 108.908 95.7598 107.89C95.7598 106.864 96.0264 106.044 96.5596 105.436C97.0928 104.827 97.8037 104.52 98.6992 104.52C99.2188 104.52 99.6768 104.643 100.06 104.875C100.442 105.107 100.757 105.456 100.996 105.921V104.745H102.062ZM104.373 105.627H103.225V104.745H104.373V102.223H105.467V104.745H106.615V105.627H105.467V111H104.373V105.627ZM108.461 107.89C108.461 108.553 108.68 109.113 109.124 109.571C109.562 110.029 110.102 110.255 110.73 110.255C111.353 110.255 111.886 110.029 112.323 109.571C112.761 109.113 112.979 108.553 112.979 107.89C112.979 107.233 112.761 106.673 112.323 106.215C111.886 105.757 111.353 105.524 110.73 105.524C110.095 105.524 109.555 105.757 109.117 106.215C108.68 106.673 108.461 107.233 108.461 107.89ZM107.326 107.89C107.326 107.432 107.408 107.001 107.579 106.591C107.743 106.181 107.989 105.818 108.317 105.497C108.639 105.183 109.008 104.937 109.418 104.772C109.828 104.608 110.266 104.52 110.73 104.52C111.182 104.52 111.612 104.608 112.022 104.772C112.433 104.943 112.802 105.189 113.137 105.511C113.458 105.825 113.704 106.188 113.875 106.598C114.039 107.008 114.128 107.438 114.128 107.89C114.128 108.348 114.039 108.778 113.875 109.182C113.704 109.585 113.458 109.94 113.137 110.255C112.802 110.583 112.426 110.836 112.016 111.007C111.605 111.185 111.175 111.267 110.73 111.267C110.266 111.267 109.828 111.185 109.418 111.014C109.008 110.843 108.639 110.597 108.317 110.275C107.989 109.947 107.743 109.585 107.579 109.182C107.408 108.785 107.326 108.354 107.326 107.89ZM115.816 111V104.745H116.767V106.044C117.054 105.504 117.354 105.114 117.683 104.882C118.004 104.649 118.4 104.533 118.865 104.533C118.988 104.533 119.111 104.547 119.234 104.567C119.351 104.588 119.467 104.615 119.59 104.656L119.234 105.62C119.111 105.579 118.995 105.552 118.886 105.531C118.776 105.511 118.667 105.497 118.571 105.497C118.004 105.497 117.58 105.702 117.3 106.112C117.013 106.522 116.876 107.131 116.876 107.951V111H115.816ZM125.018 105.627H123.869V104.745H125.018V102.223H126.111V104.745H127.26V105.627H126.111V111H125.018V105.627ZM129.105 107.89C129.105 108.553 129.324 109.113 129.769 109.571C130.206 110.029 130.746 110.255 131.375 110.255C131.997 110.255 132.53 110.029 132.968 109.571C133.405 109.113 133.624 108.553 133.624 107.89C133.624 107.233 133.405 106.673 132.968 106.215C132.53 105.757 131.997 105.524 131.375 105.524C130.739 105.524 130.199 105.757 129.762 106.215C129.324 106.673 129.105 107.233 129.105 107.89ZM127.971 107.89C127.971 107.432 128.053 107.001 128.224 106.591C128.388 106.181 128.634 105.818 128.962 105.497C129.283 105.183 129.652 104.937 130.062 104.772C130.473 104.608 130.91 104.52 131.375 104.52C131.826 104.52 132.257 104.608 132.667 104.772C133.077 104.943 133.446 105.189 133.781 105.511C134.103 105.825 134.349 106.188 134.52 106.598C134.684 107.008 134.772 107.438 134.772 107.89C134.772 108.348 134.684 108.778 134.52 109.182C134.349 109.585 134.103 109.94 133.781 110.255C133.446 110.583 133.07 110.836 132.66 111.007C132.25 111.185 131.819 111.267 131.375 111.267C130.91 111.267 130.473 111.185 130.062 111.014C129.652 110.843 129.283 110.597 128.962 110.275C128.634 109.947 128.388 109.585 128.224 109.182C128.053 108.785 127.971 108.354 127.971 107.89ZM140.378 101.73C140.378 101.519 140.453 101.334 140.604 101.184C140.754 101.033 140.945 100.951 141.164 100.951C141.376 100.951 141.561 101.033 141.711 101.184C141.861 101.341 141.943 101.525 141.943 101.744C141.943 101.963 141.868 102.141 141.718 102.291C141.567 102.441 141.383 102.517 141.164 102.517C140.945 102.517 140.754 102.441 140.604 102.291C140.453 102.141 140.378 101.956 140.378 101.73ZM140.631 111V104.745H141.711V111H140.631ZM143.967 111V104.745H145.013V105.709C145.279 105.312 145.601 105.012 145.983 104.813C146.359 104.622 146.797 104.52 147.296 104.52C148.034 104.52 148.608 104.718 149.025 105.107C149.436 105.504 149.647 106.044 149.647 106.741V111H148.554V107.315C148.554 106.687 148.417 106.215 148.15 105.907C147.884 105.6 147.474 105.442 146.92 105.442C146.599 105.442 146.305 105.504 146.045 105.62C145.785 105.736 145.566 105.9 145.396 106.112C145.259 106.276 145.163 106.468 145.108 106.673C145.054 106.885 145.026 107.247 145.026 107.767V111H143.967ZM153.831 111.39L150.734 104.745H151.938L153.817 109.113L155.704 104.745H156.907L153.831 111.39ZM158.691 107.89C158.691 108.553 158.91 109.113 159.354 109.571C159.792 110.029 160.332 110.255 160.961 110.255C161.583 110.255 162.116 110.029 162.554 109.571C162.991 109.113 163.21 108.553 163.21 107.89C163.21 107.233 162.991 106.673 162.554 106.215C162.116 105.757 161.583 105.524 160.961 105.524C160.325 105.524 159.785 105.757 159.348 106.215C158.91 106.673 158.691 107.233 158.691 107.89ZM157.557 107.89C157.557 107.432 157.639 107.001 157.81 106.591C157.974 106.181 158.22 105.818 158.548 105.497C158.869 105.183 159.238 104.937 159.648 104.772C160.059 104.608 160.496 104.52 160.961 104.52C161.412 104.52 161.843 104.608 162.253 104.772C162.663 104.943 163.032 105.189 163.367 105.511C163.688 105.825 163.935 106.188 164.105 106.598C164.27 107.008 164.358 107.438 164.358 107.89C164.358 108.348 164.27 108.778 164.105 109.182C163.935 109.585 163.688 109.94 163.367 110.255C163.032 110.583 162.656 110.836 162.246 111.007C161.836 111.185 161.405 111.267 160.961 111.267C160.496 111.267 160.059 111.185 159.648 111.014C159.238 110.843 158.869 110.597 158.548 110.275C158.22 109.947 157.974 109.585 157.81 109.182C157.639 108.785 157.557 108.354 157.557 107.89ZM166.047 111V100.404H167.12V107.582L170.135 104.745H171.563L168.439 107.609L171.844 111H170.347L167.12 107.698V111H166.047ZM177.374 107.165C177.333 106.618 177.148 106.194 176.82 105.894C176.492 105.593 176.041 105.442 175.467 105.442C174.947 105.442 174.51 105.6 174.168 105.914C173.819 106.229 173.621 106.646 173.566 107.165H177.374ZM178.522 108.033H173.566V108.129C173.566 108.799 173.758 109.346 174.141 109.756C174.523 110.166 175.022 110.371 175.638 110.371C176.055 110.371 176.431 110.262 176.772 110.036C177.107 109.811 177.408 109.469 177.668 109.011L178.481 109.558C178.167 110.125 177.764 110.549 177.278 110.836C176.786 111.123 176.226 111.267 175.583 111.267C174.626 111.267 173.86 110.952 173.272 110.323C172.685 109.694 172.391 108.874 172.391 107.849C172.391 106.871 172.678 106.071 173.266 105.442C173.847 104.82 174.599 104.506 175.515 104.506C176.438 104.506 177.169 104.807 177.709 105.395C178.249 105.989 178.522 106.796 178.522 107.821V108.033ZM184.285 111V104.745H185.235V106.044C185.522 105.504 185.823 105.114 186.151 104.882C186.473 104.649 186.869 104.533 187.334 104.533C187.457 104.533 187.58 104.547 187.703 104.567C187.819 104.588 187.936 104.615 188.059 104.656L187.703 105.62C187.58 105.579 187.464 105.552 187.354 105.531C187.245 105.511 187.136 105.497 187.04 105.497C186.473 105.497 186.049 105.702 185.769 106.112C185.481 106.522 185.345 107.131 185.345 107.951V111H184.285ZM193.63 107.165C193.589 106.618 193.404 106.194 193.076 105.894C192.748 105.593 192.297 105.442 191.723 105.442C191.203 105.442 190.766 105.6 190.424 105.914C190.075 106.229 189.877 106.646 189.822 107.165H193.63ZM194.778 108.033H189.822V108.129C189.822 108.799 190.014 109.346 190.396 109.756C190.779 110.166 191.278 110.371 191.894 110.371C192.311 110.371 192.687 110.262 193.028 110.036C193.363 109.811 193.664 109.469 193.924 109.011L194.737 109.558C194.423 110.125 194.02 110.549 193.534 110.836C193.042 111.123 192.481 111.267 191.839 111.267C190.882 111.267 190.116 110.952 189.528 110.323C188.94 109.694 188.646 108.874 188.646 107.849C188.646 106.871 188.934 106.071 189.521 105.442C190.103 104.82 190.854 104.506 191.771 104.506C192.693 104.506 193.425 104.807 193.965 105.395C194.505 105.989 194.778 106.796 194.778 107.821V108.033ZM201.184 107.89C201.184 107.165 200.992 106.591 200.623 106.174C200.254 105.764 199.741 105.552 199.085 105.552C198.449 105.552 197.95 105.771 197.588 106.208C197.219 106.646 197.041 107.254 197.041 108.02C197.041 108.71 197.219 109.25 197.574 109.633C197.93 110.022 198.429 110.214 199.058 110.214C199.693 110.214 200.206 110.002 200.596 109.578C200.985 109.154 201.184 108.594 201.184 107.89ZM202.223 114.049H201.156V109.865C200.917 110.33 200.609 110.686 200.227 110.918C199.844 111.15 199.393 111.267 198.873 111.267C197.971 111.267 197.253 110.966 196.72 110.357C196.187 109.749 195.92 108.929 195.92 107.89C195.92 106.878 196.193 106.058 196.74 105.442C197.287 104.827 198.012 104.52 198.914 104.52C199.399 104.52 199.837 104.643 200.233 104.882C200.623 105.128 200.938 105.47 201.184 105.921V104.745H202.223V114.049ZM205.415 104.745V107.821C205.415 108.724 205.545 109.353 205.812 109.708C206.078 110.063 206.529 110.241 207.165 110.241C207.794 110.241 208.245 110.07 208.505 109.715C208.765 109.359 208.901 108.73 208.901 107.821V104.745H209.995V108.396C209.995 109.339 209.749 110.057 209.271 110.542C208.785 111.027 208.074 111.267 207.138 111.267C206.208 111.267 205.497 111.027 205.019 110.535C204.533 110.05 204.294 109.339 204.294 108.396V104.745H205.415ZM216.503 107.165C216.462 106.618 216.277 106.194 215.949 105.894C215.621 105.593 215.17 105.442 214.596 105.442C214.076 105.442 213.639 105.6 213.297 105.914C212.948 106.229 212.75 106.646 212.695 107.165H216.503ZM217.651 108.033H212.695V108.129C212.695 108.799 212.887 109.346 213.27 109.756C213.652 110.166 214.151 110.371 214.767 110.371C215.184 110.371 215.56 110.262 215.901 110.036C216.236 109.811 216.537 109.469 216.797 109.011L217.61 109.558C217.296 110.125 216.893 110.549 216.407 110.836C215.915 111.123 215.354 111.267 214.712 111.267C213.755 111.267 212.989 110.952 212.401 110.323C211.813 109.694 211.52 108.874 211.52 107.849C211.52 106.871 211.807 106.071 212.395 105.442C212.976 104.82 213.728 104.506 214.644 104.506C215.566 104.506 216.298 104.807 216.838 105.395C217.378 105.989 217.651 106.796 217.651 107.821V108.033ZM218.608 109.947L219.524 109.332C219.695 109.667 219.914 109.92 220.181 110.084C220.44 110.248 220.755 110.33 221.117 110.33C221.466 110.33 221.746 110.248 221.965 110.07C222.184 109.899 222.293 109.674 222.293 109.387C222.293 109.168 222.218 108.99 222.067 108.84C221.917 108.696 221.664 108.56 221.309 108.437C221.268 108.423 221.213 108.402 221.131 108.375C219.606 107.855 218.848 107.199 218.848 106.406C218.848 105.853 219.053 105.401 219.463 105.046C219.873 104.697 220.406 104.52 221.062 104.52C221.603 104.52 222.067 104.629 222.457 104.848C222.84 105.066 223.12 105.367 223.291 105.764L222.423 106.297C222.293 106.01 222.102 105.791 221.855 105.634C221.609 105.483 221.322 105.401 220.994 105.401C220.68 105.401 220.42 105.49 220.222 105.668C220.023 105.846 219.928 106.064 219.928 106.338C219.928 106.721 220.338 107.042 221.172 107.302C221.322 107.356 221.445 107.391 221.541 107.418C222.218 107.637 222.689 107.89 222.956 108.17C223.223 108.45 223.359 108.819 223.359 109.277C223.359 109.872 223.147 110.351 222.724 110.72C222.3 111.089 221.753 111.267 221.076 111.267C220.488 111.267 219.996 111.157 219.586 110.938C219.176 110.72 218.854 110.392 218.608 109.947ZM225.137 105.627H223.988V104.745H225.137V102.223H226.23V104.745H227.379V105.627H226.23V111H225.137V105.627ZM227.933 109.947L228.849 109.332C229.02 109.667 229.238 109.92 229.505 110.084C229.765 110.248 230.079 110.33 230.441 110.33C230.79 110.33 231.07 110.248 231.289 110.07C231.508 109.899 231.617 109.674 231.617 109.387C231.617 109.168 231.542 108.99 231.392 108.84C231.241 108.696 230.988 108.56 230.633 108.437C230.592 108.423 230.537 108.402 230.455 108.375C228.931 107.855 228.172 107.199 228.172 106.406C228.172 105.853 228.377 105.401 228.787 105.046C229.197 104.697 229.73 104.52 230.387 104.52C230.927 104.52 231.392 104.629 231.781 104.848C232.164 105.066 232.444 105.367 232.615 105.764L231.747 106.297C231.617 106.01 231.426 105.791 231.18 105.634C230.934 105.483 230.646 105.401 230.318 105.401C230.004 105.401 229.744 105.49 229.546 105.668C229.348 105.846 229.252 106.064 229.252 106.338C229.252 106.721 229.662 107.042 230.496 107.302C230.646 107.356 230.77 107.391 230.865 107.418C231.542 107.637 232.014 107.89 232.28 108.17C232.547 108.45 232.684 108.819 232.684 109.277C232.684 109.872 232.472 110.351 232.048 110.72C231.624 111.089 231.077 111.267 230.4 111.267C229.812 111.267 229.32 111.157 228.91 110.938C228.5 110.72 228.179 110.392 227.933 109.947ZM238.59 105.627H237.441V104.745H238.59V102.223H239.684V104.745H240.832V105.627H239.684V111H238.59V105.627ZM242.678 107.89C242.678 108.553 242.896 109.113 243.341 109.571C243.778 110.029 244.318 110.255 244.947 110.255C245.569 110.255 246.103 110.029 246.54 109.571C246.978 109.113 247.196 108.553 247.196 107.89C247.196 107.233 246.978 106.673 246.54 106.215C246.103 105.757 245.569 105.524 244.947 105.524C244.312 105.524 243.771 105.757 243.334 106.215C242.896 106.673 242.678 107.233 242.678 107.89ZM241.543 107.89C241.543 107.432 241.625 107.001 241.796 106.591C241.96 106.181 242.206 105.818 242.534 105.497C242.855 105.183 243.225 104.937 243.635 104.772C244.045 104.608 244.482 104.52 244.947 104.52C245.398 104.52 245.829 104.608 246.239 104.772C246.649 104.943 247.019 105.189 247.354 105.511C247.675 105.825 247.921 106.188 248.092 106.598C248.256 107.008 248.345 107.438 248.345 107.89C248.345 108.348 248.256 108.778 248.092 109.182C247.921 109.585 247.675 109.94 247.354 110.255C247.019 110.583 246.643 110.836 246.232 111.007C245.822 111.185 245.392 111.267 244.947 111.267C244.482 111.267 244.045 111.185 243.635 111.014C243.225 110.843 242.855 110.597 242.534 110.275C242.206 109.947 241.96 109.585 241.796 109.182C241.625 108.785 241.543 108.354 241.543 107.89ZM254.312 105.627H253.164V104.745H254.312V102.223H255.406V104.745H256.555V105.627H255.406V111H254.312V105.627ZM257.771 111V100.404H258.817V105.709C259.084 105.312 259.405 105.012 259.788 104.813C260.164 104.622 260.602 104.52 261.101 104.52C261.839 104.52 262.413 104.718 262.83 105.107C263.24 105.504 263.452 106.044 263.452 106.741V111H262.358V107.315C262.358 106.687 262.222 106.215 261.955 105.907C261.688 105.6 261.278 105.442 260.725 105.442C260.403 105.442 260.109 105.504 259.85 105.62C259.59 105.736 259.371 105.9 259.2 106.112C259.063 106.276 258.968 106.468 258.913 106.673C258.858 106.885 258.831 107.247 258.831 107.767V111H257.771ZM270.015 107.165C269.974 106.618 269.789 106.194 269.461 105.894C269.133 105.593 268.682 105.442 268.107 105.442C267.588 105.442 267.15 105.6 266.809 105.914C266.46 106.229 266.262 106.646 266.207 107.165H270.015ZM271.163 108.033H266.207V108.129C266.207 108.799 266.398 109.346 266.781 109.756C267.164 110.166 267.663 110.371 268.278 110.371C268.695 110.371 269.071 110.262 269.413 110.036C269.748 109.811 270.049 109.469 270.309 109.011L271.122 109.558C270.808 110.125 270.404 110.549 269.919 110.836C269.427 111.123 268.866 111.267 268.224 111.267C267.267 111.267 266.501 110.952 265.913 110.323C265.325 109.694 265.031 108.874 265.031 107.849C265.031 106.871 265.318 106.071 265.906 105.442C266.487 104.82 267.239 104.506 268.155 104.506C269.078 104.506 269.81 104.807 270.35 105.395C270.89 105.989 271.163 106.796 271.163 107.821V108.033ZM280.187 103.228L278.594 106.912H281.779L280.187 103.228ZM280.187 100.596L284.739 111H283.447L282.148 107.931H278.238L276.939 111H275.647L280.187 100.596ZM286.934 106.509V111H285.771V100.992H287.87C288.602 100.992 289.142 101.033 289.49 101.108C289.832 101.19 290.133 101.313 290.393 101.491C290.707 101.724 290.96 102.031 291.138 102.428C291.315 102.824 291.411 103.269 291.411 103.747C291.411 104.232 291.315 104.67 291.138 105.066C290.96 105.463 290.707 105.777 290.393 106.003C290.133 106.188 289.832 106.317 289.49 106.393C289.148 106.475 288.608 106.509 287.87 106.509H287.535H286.934ZM286.934 105.429H287.535C288.554 105.429 289.237 105.312 289.593 105.073C289.948 104.834 290.126 104.417 290.126 103.815C290.126 103.18 289.941 102.729 289.579 102.469C289.217 102.209 288.533 102.079 287.535 102.079H286.934V105.429ZM292.895 111V100.992H294.084V111H292.895ZM296.545 110.33C296.545 110.111 296.62 109.92 296.784 109.756C296.941 109.599 297.133 109.517 297.358 109.517C297.584 109.517 297.775 109.599 297.939 109.756C298.104 109.913 298.186 110.104 298.186 110.33C298.186 110.556 298.104 110.747 297.946 110.897C297.782 111.048 297.591 111.123 297.358 111.123C297.126 111.123 296.935 111.048 296.777 110.897C296.62 110.747 296.545 110.556 296.545 110.33Z" fill="#475569"/>
<path fill-rule="evenodd" clip-rule="evenodd" d="M12 161C16.9706 161 21 156.971 21 152C21 147.029 16.9706 143 12 143C7.02944 143 3 147.029 3 152C3 156.971 7.02944 161 12 161ZM12 156C14.2091 156 16 154.209 16 152C16 149.791 14.2091 148 12 148C9.79086 148 8 149.791 8 152C8 154.209 9.79086 156 12 156Z" fill="#017B00"/>
<path d="M39.1719 151.438H39.5078C40.4922 151.438 41.1458 151.323 41.4688 151.094C41.7917 150.865 41.9531 150.458 41.9531 149.875C41.9531 149.245 41.7786 148.802 41.4297 148.547C41.0859 148.286 40.4453 148.156 39.5078 148.156H39.1719V151.438ZM39.0547 152.883V158H37.3125V146.562H39.9062C40.6667 146.562 41.2552 146.612 41.6719 146.711C42.0938 146.81 42.4531 146.974 42.75 147.203C43.1042 147.479 43.3776 147.836 43.5703 148.273C43.763 148.711 43.8594 149.19 43.8594 149.711C43.8594 150.628 43.638 151.346 43.1953 151.867C42.7526 152.383 42.099 152.693 41.2344 152.797L45.1719 158H43.0703L39.2656 152.883H39.0547ZM52.9922 154.547H47.0703C47.112 155.24 47.3177 155.781 47.6875 156.172C48.0573 156.557 48.5495 156.75 49.1641 156.75C49.7109 156.75 50.1667 156.635 50.5312 156.406C50.8958 156.177 51.2135 155.807 51.4844 155.297L52.9141 156.094C52.4974 156.839 51.9818 157.393 51.3672 157.758C50.7526 158.122 50.0312 158.305 49.2031 158.305C48.0156 158.305 47.0703 157.943 46.3672 157.219C45.6641 156.495 45.3125 155.529 45.3125 154.32C45.3125 153.159 45.6745 152.206 46.3984 151.461C47.1276 150.711 48.0625 150.336 49.2031 150.336C50.3958 150.336 51.3255 150.677 51.9922 151.359C52.6589 152.042 52.9922 152.997 52.9922 154.227V154.547ZM51.2344 153.406C51.1667 152.875 50.9635 152.471 50.625 152.195C50.2865 151.914 49.8229 151.773 49.2344 151.773C48.6771 151.773 48.2292 151.909 47.8906 152.18C47.5521 152.451 47.3151 152.859 47.1797 153.406H51.2344ZM53.9141 156.656L55.3203 155.891C55.4245 156.26 55.6172 156.542 55.8984 156.734C56.1797 156.927 56.5417 157.023 56.9844 157.023C57.3646 157.023 57.6615 156.938 57.875 156.766C58.0938 156.589 58.2031 156.349 58.2031 156.047C58.2031 155.646 57.8177 155.302 57.0469 155.016C56.7865 154.922 56.5859 154.844 56.4453 154.781C55.6536 154.453 55.099 154.12 54.7812 153.781C54.4688 153.443 54.3125 153.031 54.3125 152.547C54.3125 151.885 54.5703 151.349 55.0859 150.938C55.6068 150.526 56.2943 150.32 57.1484 150.32C57.7214 150.32 58.2109 150.427 58.6172 150.641C59.0286 150.849 59.3281 151.148 59.5156 151.539L58.3125 152.367C58.224 152.133 58.0677 151.948 57.8438 151.812C57.625 151.672 57.3698 151.602 57.0781 151.602C56.7552 151.602 56.4948 151.68 56.2969 151.836C56.1042 151.987 56.0078 152.19 56.0078 152.445C56.0078 152.831 56.4453 153.182 57.3203 153.5C57.5964 153.599 57.8099 153.68 57.9609 153.742C58.6432 154.013 59.1302 154.32 59.4219 154.664C59.7188 155.003 59.8672 155.427 59.8672 155.938C59.8672 156.677 59.599 157.258 59.0625 157.68C58.526 158.096 57.7865 158.305 56.8438 158.305C56.1198 158.305 55.5182 158.169 55.0391 157.898C54.5599 157.628 54.1849 157.214 53.9141 156.656ZM63.2188 154.273C63.2188 155.039 63.4089 155.651 63.7891 156.109C64.1745 156.568 64.6797 156.797 65.3047 156.797C65.9453 156.797 66.4401 156.583 66.7891 156.156C67.1432 155.729 67.3203 155.122 67.3203 154.336C67.3203 153.555 67.1354 152.945 66.7656 152.508C66.401 152.065 65.8984 151.844 65.2578 151.844C64.6172 151.844 64.1172 152.057 63.7578 152.484C63.3984 152.911 63.2188 153.508 63.2188 154.273ZM61.5781 161.484V150.594H63.2734V151.805C63.4714 151.336 63.7865 150.974 64.2188 150.719C64.6562 150.464 65.1771 150.336 65.7812 150.336C66.7656 150.336 67.5625 150.701 68.1719 151.43C68.7865 152.154 69.0938 153.107 69.0938 154.289C69.0938 155.534 68.7917 156.516 68.1875 157.234C67.5885 157.948 66.7656 158.305 65.7188 158.305C65.1979 158.305 64.7344 158.201 64.3281 157.992C63.9271 157.784 63.5755 157.466 63.2734 157.039V161.484H61.5781ZM76.7109 154.32C76.7109 153.633 76.4896 153.052 76.0469 152.578C75.6042 152.099 75.0625 151.859 74.4219 151.859C73.7865 151.859 73.2448 152.099 72.7969 152.578C72.3542 153.052 72.1328 153.633 72.1328 154.32C72.1328 155.008 72.3542 155.591 72.7969 156.07C73.2448 156.544 73.7865 156.781 74.4219 156.781C75.0573 156.781 75.5964 156.544 76.0391 156.07C76.487 155.591 76.7109 155.008 76.7109 154.32ZM70.3438 154.305C70.3438 153.763 70.4453 153.253 70.6484 152.773C70.8568 152.289 71.1536 151.859 71.5391 151.484C71.9193 151.115 72.3568 150.831 72.8516 150.633C73.3464 150.435 73.8646 150.336 74.4062 150.336C74.9635 150.336 75.487 150.435 75.9766 150.633C76.4714 150.831 76.9141 151.122 77.3047 151.508C77.6953 151.888 77.9922 152.318 78.1953 152.797C78.3984 153.276 78.5 153.779 78.5 154.305C78.5 154.852 78.3984 155.365 78.1953 155.844C77.9974 156.323 77.7057 156.747 77.3203 157.117C76.9141 157.508 76.4635 157.802 75.9688 158C75.474 158.203 74.9531 158.305 74.4062 158.305C73.8698 158.305 73.3542 158.203 72.8594 158C72.3646 157.802 71.9245 157.513 71.5391 157.133C71.1484 156.747 70.8516 156.315 70.6484 155.836C70.4453 155.357 70.3438 154.846 70.3438 154.305ZM80.2969 158V150.594H81.8906V151.805C82.2292 151.294 82.6276 150.922 83.0859 150.688C83.5443 150.453 84.1016 150.336 84.7578 150.336C85.3099 150.336 85.7786 150.424 86.1641 150.602C86.5547 150.773 86.8594 151.031 87.0781 151.375C87.2083 151.578 87.3021 151.815 87.3594 152.086C87.4167 152.357 87.4453 152.831 87.4453 153.508V158H85.7344V154.195C85.7344 153.221 85.6146 152.576 85.375 152.258C85.1406 151.935 84.7214 151.773 84.1172 151.773C83.7214 151.773 83.3672 151.846 83.0547 151.992C82.7474 152.138 82.5052 152.344 82.3281 152.609C82.2031 152.786 82.1146 153.016 82.0625 153.297C82.0156 153.573 81.9922 154.016 81.9922 154.625V158H80.2969ZM88.8516 156.656L90.2578 155.891C90.362 156.26 90.5547 156.542 90.8359 156.734C91.1172 156.927 91.4792 157.023 91.9219 157.023C92.3021 157.023 92.599 156.938 92.8125 156.766C93.0312 156.589 93.1406 156.349 93.1406 156.047C93.1406 155.646 92.7552 155.302 91.9844 155.016C91.724 154.922 91.5234 154.844 91.3828 154.781C90.5911 154.453 90.0365 154.12 89.7188 153.781C89.4062 153.443 89.25 153.031 89.25 152.547C89.25 151.885 89.5078 151.349 90.0234 150.938C90.5443 150.526 91.2318 150.32 92.0859 150.32C92.6589 150.32 93.1484 150.427 93.5547 150.641C93.9661 150.849 94.2656 151.148 94.4531 151.539L93.25 152.367C93.1615 152.133 93.0052 151.948 92.7812 151.812C92.5625 151.672 92.3073 151.602 92.0156 151.602C91.6927 151.602 91.4323 151.68 91.2344 151.836C91.0417 151.987 90.9453 152.19 90.9453 152.445C90.9453 152.831 91.3828 153.182 92.2578 153.5C92.5339 153.599 92.7474 153.68 92.8984 153.742C93.5807 154.013 94.0677 154.32 94.3594 154.664C94.6562 155.003 94.8047 155.427 94.8047 155.938C94.8047 156.677 94.5365 157.258 94 157.68C93.4635 158.096 92.724 158.305 91.7812 158.305C91.0573 158.305 90.4557 158.169 89.9766 157.898C89.4974 157.628 89.1224 157.214 88.8516 156.656ZM103.648 154.547H97.7266C97.7682 155.24 97.974 155.781 98.3438 156.172C98.7135 156.557 99.2057 156.75 99.8203 156.75C100.367 156.75 100.823 156.635 101.188 156.406C101.552 156.177 101.87 155.807 102.141 155.297L103.57 156.094C103.154 156.839 102.638 157.393 102.023 157.758C101.409 158.122 100.688 158.305 99.8594 158.305C98.6719 158.305 97.7266 157.943 97.0234 157.219C96.3203 156.495 95.9688 155.529 95.9688 154.32C95.9688 153.159 96.3307 152.206 97.0547 151.461C97.7839 150.711 98.7188 150.336 99.8594 150.336C101.052 150.336 101.982 150.677 102.648 151.359C103.315 152.042 103.648 152.997 103.648 154.227V154.547ZM101.891 153.406C101.823 152.875 101.62 152.471 101.281 152.195C100.943 151.914 100.479 151.773 99.8906 151.773C99.3333 151.773 98.8854 151.909 98.5469 152.18C98.2083 152.451 97.9714 152.859 97.8359 153.406H101.891Z" fill="#1E293B"/>
<path d="M45.3242 174.385C44.8457 173.865 44.333 173.482 43.793 173.236C43.2461 172.99 42.6514 172.86 41.9951 172.86C41.4619 172.86 40.9492 172.97 40.4434 173.182C39.9375 173.4 39.5068 173.694 39.1377 174.077C38.7549 174.474 38.4678 174.918 38.2764 175.41C38.085 175.902 37.9893 176.442 37.9893 177.03C37.9893 177.495 38.0439 177.926 38.1602 178.315C38.2695 178.712 38.4404 179.067 38.6729 179.396C39.0693 179.97 39.5615 180.407 40.1494 180.715C40.7373 181.022 41.3662 181.173 42.0498 181.173C42.6855 181.173 43.2803 181.043 43.8271 180.776C44.374 180.517 44.873 180.12 45.3242 179.594V181.173C44.8252 181.535 44.292 181.809 43.7178 181.993C43.1436 182.178 42.5557 182.267 41.9473 182.267C41.4141 182.267 40.9014 182.191 40.4023 182.034C39.8965 181.877 39.4316 181.645 38.9941 181.344C38.2627 180.838 37.7021 180.216 37.3193 179.478C36.9365 178.739 36.7451 177.933 36.7451 177.044C36.7451 176.278 36.8682 175.574 37.1279 174.945C37.3877 174.316 37.7773 173.742 38.3105 173.223C38.8164 172.73 39.3838 172.368 40.0059 172.122C40.6211 171.876 41.2979 171.753 42.0361 171.753C42.6104 171.753 43.1709 171.842 43.7178 172.02C44.2578 172.197 44.791 172.464 45.3242 172.833V174.385ZM47.252 182V171.404H48.2979V176.709C48.5645 176.312 48.8857 176.012 49.2686 175.813C49.6445 175.622 50.082 175.52 50.5811 175.52C51.3193 175.52 51.8936 175.718 52.3105 176.107C52.7207 176.504 52.9326 177.044 52.9326 177.741V182H51.8389V178.315C51.8389 177.687 51.7021 177.215 51.4355 176.907C51.1689 176.6 50.7588 176.442 50.2051 176.442C49.8838 176.442 49.5898 176.504 49.3301 176.62C49.0703 176.736 48.8516 176.9 48.6807 177.112C48.5439 177.276 48.4482 177.468 48.3936 177.673C48.3389 177.885 48.3115 178.247 48.3115 178.767V182H47.252ZM59.4951 178.165C59.4541 177.618 59.2695 177.194 58.9414 176.894C58.6133 176.593 58.1621 176.442 57.5879 176.442C57.0684 176.442 56.6309 176.6 56.2891 176.914C55.9404 177.229 55.7422 177.646 55.6875 178.165H59.4951ZM60.6436 179.033H55.6875V179.129C55.6875 179.799 55.8789 180.346 56.2617 180.756C56.6445 181.166 57.1436 181.371 57.7588 181.371C58.1758 181.371 58.5518 181.262 58.8936 181.036C59.2285 180.811 59.5293 180.469 59.7891 180.011L60.6025 180.558C60.2881 181.125 59.8848 181.549 59.3994 181.836C58.9072 182.123 58.3467 182.267 57.7041 182.267C56.7471 182.267 55.9814 181.952 55.3936 181.323C54.8057 180.694 54.5117 179.874 54.5117 178.849C54.5117 177.871 54.7988 177.071 55.3867 176.442C55.9678 175.82 56.7197 175.506 57.6357 175.506C58.5586 175.506 59.29 175.807 59.8301 176.395C60.3701 176.989 60.6436 177.796 60.6436 178.821V179.033ZM67.0625 180.517V181.761C66.7754 181.932 66.4609 182.062 66.1055 182.144C65.75 182.226 65.374 182.267 64.9639 182.267C63.9932 182.267 63.2139 181.966 62.626 181.351C62.0381 180.735 61.7441 179.929 61.7441 178.931C61.7441 177.933 62.0449 177.112 62.6602 176.477C63.2686 175.841 64.0479 175.52 65.0049 175.52C65.3467 175.52 65.6885 175.561 66.0166 175.629C66.3447 175.704 66.6592 175.813 66.9531 175.95V177.099C66.6797 176.921 66.3926 176.791 66.1055 176.695C65.8115 176.6 65.5176 176.552 65.2168 176.552C64.5127 176.552 63.9521 176.777 63.5283 177.215C63.1045 177.652 62.8926 178.24 62.8926 178.965C62.8926 179.607 63.1045 180.147 63.5283 180.578C63.9521 181.016 64.4922 181.228 65.1348 181.228C65.4561 181.228 65.7705 181.173 66.085 181.057C66.3926 180.947 66.7207 180.763 67.0625 180.517ZM68.5664 182V171.404H69.6396V178.582L72.6543 175.745H74.083L70.959 178.609L74.3633 182H72.8662L69.6396 178.698V182H68.5664ZM79.5996 182V175.745H80.5498V177.044C80.8369 176.504 81.1377 176.114 81.4658 175.882C81.7871 175.649 82.1836 175.533 82.6484 175.533C82.7715 175.533 82.8945 175.547 83.0176 175.567C83.1338 175.588 83.25 175.615 83.373 175.656L83.0176 176.62C82.8945 176.579 82.7783 176.552 82.6689 176.531C82.5596 176.511 82.4502 176.497 82.3545 176.497C81.7871 176.497 81.3633 176.702 81.083 177.112C80.7959 177.522 80.6592 178.131 80.6592 178.951V182H79.5996ZM88.9443 178.165C88.9033 177.618 88.7188 177.194 88.3906 176.894C88.0625 176.593 87.6113 176.442 87.0371 176.442C86.5176 176.442 86.0801 176.6 85.7383 176.914C85.3896 177.229 85.1914 177.646 85.1367 178.165H88.9443ZM90.0928 179.033H85.1367V179.129C85.1367 179.799 85.3281 180.346 85.7109 180.756C86.0938 181.166 86.5928 181.371 87.208 181.371C87.625 181.371 88.001 181.262 88.3428 181.036C88.6777 180.811 88.9785 180.469 89.2383 180.011L90.0518 180.558C89.7373 181.125 89.334 181.549 88.8486 181.836C88.3564 182.123 87.7959 182.267 87.1533 182.267C86.1963 182.267 85.4307 181.952 84.8428 181.323C84.2549 180.694 83.9609 179.874 83.9609 178.849C83.9609 177.871 84.248 177.071 84.8359 176.442C85.417 175.82 86.1689 175.506 87.085 175.506C88.0078 175.506 88.7393 175.807 89.2793 176.395C89.8193 176.989 90.0928 177.796 90.0928 178.821V179.033ZM91.0498 180.947L91.9658 180.332C92.1367 180.667 92.3555 180.92 92.6221 181.084C92.8818 181.248 93.1963 181.33 93.5586 181.33C93.9072 181.33 94.1875 181.248 94.4062 181.07C94.625 180.899 94.7344 180.674 94.7344 180.387C94.7344 180.168 94.6592 179.99 94.5088 179.84C94.3584 179.696 94.1055 179.56 93.75 179.437C93.709 179.423 93.6543 179.402 93.5723 179.375C92.0479 178.855 91.2891 178.199 91.2891 177.406C91.2891 176.853 91.4941 176.401 91.9043 176.046C92.3145 175.697 92.8477 175.52 93.5039 175.52C94.0439 175.52 94.5088 175.629 94.8984 175.848C95.2812 176.066 95.5615 176.367 95.7324 176.764L94.8643 177.297C94.7344 177.01 94.543 176.791 94.2969 176.634C94.0508 176.483 93.7637 176.401 93.4355 176.401C93.1211 176.401 92.8613 176.49 92.6631 176.668C92.4648 176.846 92.3691 177.064 92.3691 177.338C92.3691 177.721 92.7793 178.042 93.6133 178.302C93.7637 178.356 93.8867 178.391 93.9824 178.418C94.6592 178.637 95.1309 178.89 95.3975 179.17C95.6641 179.45 95.8008 179.819 95.8008 180.277C95.8008 180.872 95.5889 181.351 95.165 181.72C94.7412 182.089 94.1943 182.267 93.5176 182.267C92.9297 182.267 92.4375 182.157 92.0273 181.938C91.6172 181.72 91.2959 181.392 91.0498 180.947ZM98.4463 178.89C98.4463 179.594 98.6377 180.154 99.0273 180.578C99.4102 181.002 99.9229 181.214 100.565 181.214C101.188 181.214 101.68 181.022 102.035 180.633C102.391 180.25 102.575 179.71 102.575 179.02C102.575 178.254 102.391 177.646 102.035 177.208C101.68 176.771 101.181 176.552 100.545 176.552C99.8887 176.552 99.376 176.764 99.0068 177.174C98.6309 177.591 98.4463 178.165 98.4463 178.89ZM97.4141 185.049V175.745H98.4326V176.921C98.6719 176.47 98.9932 176.128 99.3896 175.882C99.7861 175.643 100.224 175.52 100.716 175.52C101.618 175.52 102.343 175.827 102.89 176.442C103.437 177.058 103.71 177.878 103.71 178.89C103.71 179.929 103.437 180.749 102.903 181.357C102.37 181.966 101.652 182.267 100.757 182.267C100.237 182.267 99.793 182.15 99.4102 181.918C99.0273 181.686 98.7129 181.33 98.4736 180.865V185.049H97.4141ZM106.055 178.89C106.055 179.553 106.273 180.113 106.718 180.571C107.155 181.029 107.695 181.255 108.324 181.255C108.946 181.255 109.479 181.029 109.917 180.571C110.354 180.113 110.573 179.553 110.573 178.89C110.573 178.233 110.354 177.673 109.917 177.215C109.479 176.757 108.946 176.524 108.324 176.524C107.688 176.524 107.148 176.757 106.711 177.215C106.273 177.673 106.055 178.233 106.055 178.89ZM104.92 178.89C104.92 178.432 105.002 178.001 105.173 177.591C105.337 177.181 105.583 176.818 105.911 176.497C106.232 176.183 106.602 175.937 107.012 175.772C107.422 175.608 107.859 175.52 108.324 175.52C108.775 175.52 109.206 175.608 109.616 175.772C110.026 175.943 110.396 176.189 110.73 176.511C111.052 176.825 111.298 177.188 111.469 177.598C111.633 178.008 111.722 178.438 111.722 178.89C111.722 179.348 111.633 179.778 111.469 180.182C111.298 180.585 111.052 180.94 110.73 181.255C110.396 181.583 110.02 181.836 109.609 182.007C109.199 182.185 108.769 182.267 108.324 182.267C107.859 182.267 107.422 182.185 107.012 182.014C106.602 181.843 106.232 181.597 105.911 181.275C105.583 180.947 105.337 180.585 105.173 180.182C105.002 179.785 104.92 179.354 104.92 178.89ZM113.396 182V175.745H114.442V176.709C114.709 176.312 115.03 176.012 115.413 175.813C115.789 175.622 116.227 175.52 116.726 175.52C117.464 175.52 118.038 175.718 118.455 176.107C118.865 176.504 119.077 177.044 119.077 177.741V182H117.983V178.315C117.983 177.687 117.847 177.215 117.58 176.907C117.313 176.6 116.903 176.442 116.35 176.442C116.028 176.442 115.734 176.504 115.475 176.62C115.215 176.736 114.996 176.9 114.825 177.112C114.688 177.276 114.593 177.468 114.538 177.673C114.483 177.885 114.456 178.247 114.456 178.767V182H113.396ZM120.54 180.947L121.456 180.332C121.627 180.667 121.846 180.92 122.112 181.084C122.372 181.248 122.687 181.33 123.049 181.33C123.397 181.33 123.678 181.248 123.896 181.07C124.115 180.899 124.225 180.674 124.225 180.387C124.225 180.168 124.149 179.99 123.999 179.84C123.849 179.696 123.596 179.56 123.24 179.437C123.199 179.423 123.145 179.402 123.062 179.375C121.538 178.855 120.779 178.199 120.779 177.406C120.779 176.853 120.984 176.401 121.395 176.046C121.805 175.697 122.338 175.52 122.994 175.52C123.534 175.52 123.999 175.629 124.389 175.848C124.771 176.066 125.052 176.367 125.223 176.764L124.354 177.297C124.225 177.01 124.033 176.791 123.787 176.634C123.541 176.483 123.254 176.401 122.926 176.401C122.611 176.401 122.352 176.49 122.153 176.668C121.955 176.846 121.859 177.064 121.859 177.338C121.859 177.721 122.27 178.042 123.104 178.302C123.254 178.356 123.377 178.391 123.473 178.418C124.149 178.637 124.621 178.89 124.888 179.17C125.154 179.45 125.291 179.819 125.291 180.277C125.291 180.872 125.079 181.351 124.655 181.72C124.231 182.089 123.685 182.267 123.008 182.267C122.42 182.267 121.928 182.157 121.518 181.938C121.107 181.72 120.786 181.392 120.54 180.947ZM131.341 178.165C131.3 177.618 131.115 177.194 130.787 176.894C130.459 176.593 130.008 176.442 129.434 176.442C128.914 176.442 128.477 176.6 128.135 176.914C127.786 177.229 127.588 177.646 127.533 178.165H131.341ZM132.489 179.033H127.533V179.129C127.533 179.799 127.725 180.346 128.107 180.756C128.49 181.166 128.989 181.371 129.604 181.371C130.021 181.371 130.397 181.262 130.739 181.036C131.074 180.811 131.375 180.469 131.635 180.011L132.448 180.558C132.134 181.125 131.73 181.549 131.245 181.836C130.753 182.123 130.192 182.267 129.55 182.267C128.593 182.267 127.827 181.952 127.239 181.323C126.651 180.694 126.357 179.874 126.357 178.849C126.357 177.871 126.645 177.071 127.232 176.442C127.813 175.82 128.565 175.506 129.481 175.506C130.404 175.506 131.136 175.807 131.676 176.395C132.216 176.989 132.489 177.796 132.489 178.821V179.033ZM138.519 182V176.627H137.315V175.745H138.519V173.934C138.519 172.895 138.648 172.197 138.908 171.828C139.168 171.459 139.64 171.274 140.323 171.274C140.487 171.274 140.651 171.288 140.802 171.309C140.952 171.336 141.103 171.37 141.246 171.418V172.525C141.109 172.45 140.966 172.396 140.829 172.354C140.692 172.32 140.549 172.3 140.405 172.3C140.091 172.3 139.872 172.402 139.756 172.601C139.633 172.806 139.578 173.298 139.578 174.077V175.745H141.246V176.627H139.605V182H138.519ZM142.914 178.89C142.914 179.553 143.133 180.113 143.577 180.571C144.015 181.029 144.555 181.255 145.184 181.255C145.806 181.255 146.339 181.029 146.776 180.571C147.214 180.113 147.433 179.553 147.433 178.89C147.433 178.233 147.214 177.673 146.776 177.215C146.339 176.757 145.806 176.524 145.184 176.524C144.548 176.524 144.008 176.757 143.57 177.215C143.133 177.673 142.914 178.233 142.914 178.89ZM141.779 178.89C141.779 178.432 141.861 178.001 142.032 177.591C142.196 177.181 142.442 176.818 142.771 176.497C143.092 176.183 143.461 175.937 143.871 175.772C144.281 175.608 144.719 175.52 145.184 175.52C145.635 175.52 146.065 175.608 146.476 175.772C146.886 175.943 147.255 176.189 147.59 176.511C147.911 176.825 148.157 177.188 148.328 177.598C148.492 178.008 148.581 178.438 148.581 178.89C148.581 179.348 148.492 179.778 148.328 180.182C148.157 180.585 147.911 180.94 147.59 181.255C147.255 181.583 146.879 181.836 146.469 182.007C146.059 182.185 145.628 182.267 145.184 182.267C144.719 182.267 144.281 182.185 143.871 182.014C143.461 181.843 143.092 181.597 142.771 181.275C142.442 180.947 142.196 180.585 142.032 180.182C141.861 179.785 141.779 179.354 141.779 178.89ZM150.27 182V175.745H151.22V177.044C151.507 176.504 151.808 176.114 152.136 175.882C152.457 175.649 152.854 175.533 153.318 175.533C153.441 175.533 153.564 175.547 153.688 175.567C153.804 175.588 153.92 175.615 154.043 175.656L153.688 176.62C153.564 176.579 153.448 176.552 153.339 176.531C153.229 176.511 153.12 176.497 153.024 176.497C152.457 176.497 152.033 176.702 151.753 177.112C151.466 177.522 151.329 178.131 151.329 178.951V182H150.27ZM158.644 180.947L159.56 180.332C159.73 180.667 159.949 180.92 160.216 181.084C160.476 181.248 160.79 181.33 161.152 181.33C161.501 181.33 161.781 181.248 162 181.07C162.219 180.899 162.328 180.674 162.328 180.387C162.328 180.168 162.253 179.99 162.103 179.84C161.952 179.696 161.699 179.56 161.344 179.437C161.303 179.423 161.248 179.402 161.166 179.375C159.642 178.855 158.883 178.199 158.883 177.406C158.883 176.853 159.088 176.401 159.498 176.046C159.908 175.697 160.441 175.52 161.098 175.52C161.638 175.52 162.103 175.629 162.492 175.848C162.875 176.066 163.155 176.367 163.326 176.764L162.458 177.297C162.328 177.01 162.137 176.791 161.891 176.634C161.645 176.483 161.357 176.401 161.029 176.401C160.715 176.401 160.455 176.49 160.257 176.668C160.059 176.846 159.963 177.064 159.963 177.338C159.963 177.721 160.373 178.042 161.207 178.302C161.357 178.356 161.48 178.391 161.576 178.418C162.253 178.637 162.725 178.89 162.991 179.17C163.258 179.45 163.395 179.819 163.395 180.277C163.395 180.872 163.183 181.351 162.759 181.72C162.335 182.089 161.788 182.267 161.111 182.267C160.523 182.267 160.031 182.157 159.621 181.938C159.211 181.72 158.89 181.392 158.644 180.947ZM166.013 175.745V178.821C166.013 179.724 166.143 180.353 166.409 180.708C166.676 181.063 167.127 181.241 167.763 181.241C168.392 181.241 168.843 181.07 169.103 180.715C169.362 180.359 169.499 179.73 169.499 178.821V175.745H170.593V179.396C170.593 180.339 170.347 181.057 169.868 181.542C169.383 182.027 168.672 182.267 167.735 182.267C166.806 182.267 166.095 182.027 165.616 181.535C165.131 181.05 164.892 180.339 164.892 179.396V175.745H166.013ZM177.463 180.517V181.761C177.176 181.932 176.861 182.062 176.506 182.144C176.15 182.226 175.774 182.267 175.364 182.267C174.394 182.267 173.614 181.966 173.026 181.351C172.438 180.735 172.145 179.929 172.145 178.931C172.145 177.933 172.445 177.112 173.061 176.477C173.669 175.841 174.448 175.52 175.405 175.52C175.747 175.52 176.089 175.561 176.417 175.629C176.745 175.704 177.06 175.813 177.354 175.95V177.099C177.08 176.921 176.793 176.791 176.506 176.695C176.212 176.6 175.918 176.552 175.617 176.552C174.913 176.552 174.353 176.777 173.929 177.215C173.505 177.652 173.293 178.24 173.293 178.965C173.293 179.607 173.505 180.147 173.929 180.578C174.353 181.016 174.893 181.228 175.535 181.228C175.856 181.228 176.171 181.173 176.485 181.057C176.793 180.947 177.121 180.763 177.463 180.517ZM183.752 180.517V181.761C183.465 181.932 183.15 182.062 182.795 182.144C182.439 182.226 182.063 182.267 181.653 182.267C180.683 182.267 179.903 181.966 179.315 181.351C178.728 180.735 178.434 179.929 178.434 178.931C178.434 177.933 178.734 177.112 179.35 176.477C179.958 175.841 180.737 175.52 181.694 175.52C182.036 175.52 182.378 175.561 182.706 175.629C183.034 175.704 183.349 175.813 183.643 175.95V177.099C183.369 176.921 183.082 176.791 182.795 176.695C182.501 176.6 182.207 176.552 181.906 176.552C181.202 176.552 180.642 176.777 180.218 177.215C179.794 177.652 179.582 178.24 179.582 178.965C179.582 179.607 179.794 180.147 180.218 180.578C180.642 181.016 181.182 181.228 181.824 181.228C182.146 181.228 182.46 181.173 182.774 181.057C183.082 180.947 183.41 180.763 183.752 180.517ZM189.679 178.165C189.638 177.618 189.453 177.194 189.125 176.894C188.797 176.593 188.346 176.442 187.771 176.442C187.252 176.442 186.814 176.6 186.473 176.914C186.124 177.229 185.926 177.646 185.871 178.165H189.679ZM190.827 179.033H185.871V179.129C185.871 179.799 186.062 180.346 186.445 180.756C186.828 181.166 187.327 181.371 187.942 181.371C188.359 181.371 188.735 181.262 189.077 181.036C189.412 180.811 189.713 180.469 189.973 180.011L190.786 180.558C190.472 181.125 190.068 181.549 189.583 181.836C189.091 182.123 188.53 182.267 187.888 182.267C186.931 182.267 186.165 181.952 185.577 181.323C184.989 180.694 184.695 179.874 184.695 178.849C184.695 177.871 184.982 177.071 185.57 176.442C186.151 175.82 186.903 175.506 187.819 175.506C188.742 175.506 189.474 175.807 190.014 176.395C190.554 176.989 190.827 177.796 190.827 178.821V179.033ZM191.784 180.947L192.7 180.332C192.871 180.667 193.09 180.92 193.356 181.084C193.616 181.248 193.931 181.33 194.293 181.33C194.642 181.33 194.922 181.248 195.141 181.07C195.359 180.899 195.469 180.674 195.469 180.387C195.469 180.168 195.394 179.99 195.243 179.84C195.093 179.696 194.84 179.56 194.484 179.437C194.443 179.423 194.389 179.402 194.307 179.375C192.782 178.855 192.023 178.199 192.023 177.406C192.023 176.853 192.229 176.401 192.639 176.046C193.049 175.697 193.582 175.52 194.238 175.52C194.778 175.52 195.243 175.629 195.633 175.848C196.016 176.066 196.296 176.367 196.467 176.764L195.599 177.297C195.469 177.01 195.277 176.791 195.031 176.634C194.785 176.483 194.498 176.401 194.17 176.401C193.855 176.401 193.596 176.49 193.397 176.668C193.199 176.846 193.104 177.064 193.104 177.338C193.104 177.721 193.514 178.042 194.348 178.302C194.498 178.356 194.621 178.391 194.717 178.418C195.394 178.637 195.865 178.89 196.132 179.17C196.398 179.45 196.535 179.819 196.535 180.277C196.535 180.872 196.323 181.351 195.899 181.72C195.476 182.089 194.929 182.267 194.252 182.267C193.664 182.267 193.172 182.157 192.762 181.938C192.352 181.72 192.03 181.392 191.784 180.947ZM197.485 180.947L198.401 180.332C198.572 180.667 198.791 180.92 199.058 181.084C199.317 181.248 199.632 181.33 199.994 181.33C200.343 181.33 200.623 181.248 200.842 181.07C201.061 180.899 201.17 180.674 201.17 180.387C201.17 180.168 201.095 179.99 200.944 179.84C200.794 179.696 200.541 179.56 200.186 179.437C200.145 179.423 200.09 179.402 200.008 179.375C198.483 178.855 197.725 178.199 197.725 177.406C197.725 176.853 197.93 176.401 198.34 176.046C198.75 175.697 199.283 175.52 199.939 175.52C200.479 175.52 200.944 175.629 201.334 175.848C201.717 176.066 201.997 176.367 202.168 176.764L201.3 177.297C201.17 177.01 200.979 176.791 200.732 176.634C200.486 176.483 200.199 176.401 199.871 176.401C199.557 176.401 199.297 176.49 199.099 176.668C198.9 176.846 198.805 177.064 198.805 177.338C198.805 177.721 199.215 178.042 200.049 178.302C200.199 178.356 200.322 178.391 200.418 178.418C201.095 178.637 201.566 178.89 201.833 179.17C202.1 179.45 202.236 179.819 202.236 180.277C202.236 180.872 202.024 181.351 201.601 181.72C201.177 182.089 200.63 182.267 199.953 182.267C199.365 182.267 198.873 182.157 198.463 181.938C198.053 181.72 197.731 181.392 197.485 180.947ZM208.607 178.89C208.607 179.553 208.826 180.113 209.271 180.571C209.708 181.029 210.248 181.255 210.877 181.255C211.499 181.255 212.032 181.029 212.47 180.571C212.907 180.113 213.126 179.553 213.126 178.89C213.126 178.233 212.907 177.673 212.47 177.215C212.032 176.757 211.499 176.524 210.877 176.524C210.241 176.524 209.701 176.757 209.264 177.215C208.826 177.673 208.607 178.233 208.607 178.89ZM207.473 178.89C207.473 178.432 207.555 178.001 207.726 177.591C207.89 177.181 208.136 176.818 208.464 176.497C208.785 176.183 209.154 175.937 209.564 175.772C209.975 175.608 210.412 175.52 210.877 175.52C211.328 175.52 211.759 175.608 212.169 175.772C212.579 175.943 212.948 176.189 213.283 176.511C213.604 176.825 213.851 177.188 214.021 177.598C214.186 178.008 214.274 178.438 214.274 178.89C214.274 179.348 214.186 179.778 214.021 180.182C213.851 180.585 213.604 180.94 213.283 181.255C212.948 181.583 212.572 181.836 212.162 182.007C211.752 182.185 211.321 182.267 210.877 182.267C210.412 182.267 209.975 182.185 209.564 182.014C209.154 181.843 208.785 181.597 208.464 181.275C208.136 180.947 207.89 180.585 207.726 180.182C207.555 179.785 207.473 179.354 207.473 178.89ZM215.963 182V175.745H216.913V177.044C217.2 176.504 217.501 176.114 217.829 175.882C218.15 175.649 218.547 175.533 219.012 175.533C219.135 175.533 219.258 175.547 219.381 175.567C219.497 175.588 219.613 175.615 219.736 175.656L219.381 176.62C219.258 176.579 219.142 176.552 219.032 176.531C218.923 176.511 218.813 176.497 218.718 176.497C218.15 176.497 217.727 176.702 217.446 177.112C217.159 177.522 217.022 178.131 217.022 178.951V182H215.963ZM225.164 176.627H224.016V175.745H225.164V173.223H226.258V175.745H227.406V176.627H226.258V182H225.164V176.627ZM229.252 178.89C229.252 179.553 229.471 180.113 229.915 180.571C230.353 181.029 230.893 181.255 231.521 181.255C232.144 181.255 232.677 181.029 233.114 180.571C233.552 180.113 233.771 179.553 233.771 178.89C233.771 178.233 233.552 177.673 233.114 177.215C232.677 176.757 232.144 176.524 231.521 176.524C230.886 176.524 230.346 176.757 229.908 177.215C229.471 177.673 229.252 178.233 229.252 178.89ZM228.117 178.89C228.117 178.432 228.199 178.001 228.37 177.591C228.534 177.181 228.78 176.818 229.108 176.497C229.43 176.183 229.799 175.937 230.209 175.772C230.619 175.608 231.057 175.52 231.521 175.52C231.973 175.52 232.403 175.608 232.813 175.772C233.224 175.943 233.593 176.189 233.928 176.511C234.249 176.825 234.495 177.188 234.666 177.598C234.83 178.008 234.919 178.438 234.919 178.89C234.919 179.348 234.83 179.778 234.666 180.182C234.495 180.585 234.249 180.94 233.928 181.255C233.593 181.583 233.217 181.836 232.807 182.007C232.396 182.185 231.966 182.267 231.521 182.267C231.057 182.267 230.619 182.185 230.209 182.014C229.799 181.843 229.43 181.597 229.108 181.275C228.78 180.947 228.534 180.585 228.37 180.182C228.199 179.785 228.117 179.354 228.117 178.89ZM240.736 182V175.745H241.687V177.044C241.974 176.504 242.274 176.114 242.603 175.882C242.924 175.649 243.32 175.533 243.785 175.533C243.908 175.533 244.031 175.547 244.154 175.567C244.271 175.588 244.387 175.615 244.51 175.656L244.154 176.62C244.031 176.579 243.915 176.552 243.806 176.531C243.696 176.511 243.587 176.497 243.491 176.497C242.924 176.497 242.5 176.702 242.22 177.112C241.933 177.522 241.796 178.131 241.796 178.951V182H240.736ZM250.081 178.165C250.04 177.618 249.855 177.194 249.527 176.894C249.199 176.593 248.748 176.442 248.174 176.442C247.654 176.442 247.217 176.6 246.875 176.914C246.526 177.229 246.328 177.646 246.273 178.165H250.081ZM251.229 179.033H246.273V179.129C246.273 179.799 246.465 180.346 246.848 180.756C247.23 181.166 247.729 181.371 248.345 181.371C248.762 181.371 249.138 181.262 249.479 181.036C249.814 180.811 250.115 180.469 250.375 180.011L251.188 180.558C250.874 181.125 250.471 181.549 249.985 181.836C249.493 182.123 248.933 182.267 248.29 182.267C247.333 182.267 246.567 181.952 245.979 181.323C245.392 180.694 245.098 179.874 245.098 178.849C245.098 177.871 245.385 177.071 245.973 176.442C246.554 175.82 247.306 175.506 248.222 175.506C249.145 175.506 249.876 175.807 250.416 176.395C250.956 176.989 251.229 177.796 251.229 178.821V179.033ZM252.187 180.947L253.103 180.332C253.273 180.667 253.492 180.92 253.759 181.084C254.019 181.248 254.333 181.33 254.695 181.33C255.044 181.33 255.324 181.248 255.543 181.07C255.762 180.899 255.871 180.674 255.871 180.387C255.871 180.168 255.796 179.99 255.646 179.84C255.495 179.696 255.242 179.56 254.887 179.437C254.846 179.423 254.791 179.402 254.709 179.375C253.185 178.855 252.426 178.199 252.426 177.406C252.426 176.853 252.631 176.401 253.041 176.046C253.451 175.697 253.984 175.52 254.641 175.52C255.181 175.52 255.646 175.629 256.035 175.848C256.418 176.066 256.698 176.367 256.869 176.764L256.001 177.297C255.871 177.01 255.68 176.791 255.434 176.634C255.188 176.483 254.9 176.401 254.572 176.401C254.258 176.401 253.998 176.49 253.8 176.668C253.602 176.846 253.506 177.064 253.506 177.338C253.506 177.721 253.916 178.042 254.75 178.302C254.9 178.356 255.023 178.391 255.119 178.418C255.796 178.637 256.268 178.89 256.534 179.17C256.801 179.45 256.938 179.819 256.938 180.277C256.938 180.872 256.726 181.351 256.302 181.72C255.878 182.089 255.331 182.267 254.654 182.267C254.066 182.267 253.574 182.157 253.164 181.938C252.754 181.72 252.433 181.392 252.187 180.947ZM259.18 178.89C259.18 179.553 259.398 180.113 259.843 180.571C260.28 181.029 260.82 181.255 261.449 181.255C262.071 181.255 262.604 181.029 263.042 180.571C263.479 180.113 263.698 179.553 263.698 178.89C263.698 178.233 263.479 177.673 263.042 177.215C262.604 176.757 262.071 176.524 261.449 176.524C260.813 176.524 260.273 176.757 259.836 177.215C259.398 177.673 259.18 178.233 259.18 178.89ZM258.045 178.89C258.045 178.432 258.127 178.001 258.298 177.591C258.462 177.181 258.708 176.818 259.036 176.497C259.357 176.183 259.727 175.937 260.137 175.772C260.547 175.608 260.984 175.52 261.449 175.52C261.9 175.52 262.331 175.608 262.741 175.772C263.151 175.943 263.521 176.189 263.855 176.511C264.177 176.825 264.423 177.188 264.594 177.598C264.758 178.008 264.847 178.438 264.847 178.89C264.847 179.348 264.758 179.778 264.594 180.182C264.423 180.585 264.177 180.94 263.855 181.255C263.521 181.583 263.145 181.836 262.734 182.007C262.324 182.185 261.894 182.267 261.449 182.267C260.984 182.267 260.547 182.185 260.137 182.014C259.727 181.843 259.357 181.597 259.036 181.275C258.708 180.947 258.462 180.585 258.298 180.182C258.127 179.785 258.045 179.354 258.045 178.89ZM266.576 182V171.404H267.67V182H266.576ZM271.97 182.39L268.873 175.745H270.076L271.956 180.113L273.843 175.745H275.046L271.97 182.39ZM280.638 178.165C280.597 177.618 280.412 177.194 280.084 176.894C279.756 176.593 279.305 176.442 278.73 176.442C278.211 176.442 277.773 176.6 277.432 176.914C277.083 177.229 276.885 177.646 276.83 178.165H280.638ZM281.786 179.033H276.83V179.129C276.83 179.799 277.021 180.346 277.404 180.756C277.787 181.166 278.286 181.371 278.901 181.371C279.318 181.371 279.694 181.262 280.036 181.036C280.371 180.811 280.672 180.469 280.932 180.011L281.745 180.558C281.431 181.125 281.027 181.549 280.542 181.836C280.05 182.123 279.489 182.267 278.847 182.267C277.89 182.267 277.124 181.952 276.536 181.323C275.948 180.694 275.654 179.874 275.654 178.849C275.654 177.871 275.941 177.071 276.529 176.442C277.11 175.82 277.862 175.506 278.778 175.506C279.701 175.506 280.433 175.807 280.973 176.395C281.513 176.989 281.786 177.796 281.786 178.821V179.033ZM292.32 178.931C292.32 178.227 292.122 177.659 291.739 177.229C291.356 176.798 290.851 176.579 290.235 176.579C289.593 176.579 289.087 176.777 288.731 177.174C288.369 177.57 288.191 178.124 288.191 178.835C288.191 179.594 288.369 180.175 288.731 180.585C289.094 180.995 289.606 181.2 290.276 181.2C290.912 181.2 291.411 181.002 291.773 180.605C292.136 180.209 292.32 179.648 292.32 178.931ZM293.359 175.745V182H292.32V180.865C292.067 181.323 291.746 181.672 291.356 181.911C290.967 182.15 290.529 182.267 290.051 182.267C289.148 182.267 288.424 181.959 287.877 181.344C287.33 180.729 287.057 179.908 287.057 178.89C287.057 177.864 287.323 177.044 287.856 176.436C288.39 175.827 289.101 175.52 289.996 175.52C290.516 175.52 290.974 175.643 291.356 175.875C291.739 176.107 292.054 176.456 292.293 176.921V175.745H293.359ZM295.506 182V175.745H296.552V176.709C296.818 176.312 297.14 176.012 297.522 175.813C297.898 175.622 298.336 175.52 298.835 175.52C299.573 175.52 300.147 175.718 300.564 176.107C300.975 176.504 301.187 177.044 301.187 177.741V182H300.093V178.315C300.093 177.687 299.956 177.215 299.689 176.907C299.423 176.6 299.013 176.442 298.459 176.442C298.138 176.442 297.844 176.504 297.584 176.62C297.324 176.736 297.105 176.9 296.935 177.112C296.798 177.276 296.702 177.468 296.647 177.673C296.593 177.885 296.565 178.247 296.565 178.767V182H295.506ZM303.06 185.049L304.755 181.385L302.301 175.745H303.538L305.356 180.236L307.284 175.745H308.46L304.263 185.049H303.06ZM41.5303 198.165C41.4893 197.618 41.3047 197.194 40.9766 196.894C40.6484 196.593 40.1973 196.442 39.623 196.442C39.1035 196.442 38.666 196.6 38.3242 196.914C37.9756 197.229 37.7773 197.646 37.7227 198.165H41.5303ZM42.6787 199.033H37.7227V199.129C37.7227 199.799 37.9141 200.346 38.2969 200.756C38.6797 201.166 39.1787 201.371 39.7939 201.371C40.2109 201.371 40.5869 201.262 40.9287 201.036C41.2637 200.811 41.5645 200.469 41.8242 200.011L42.6377 200.558C42.3232 201.125 41.9199 201.549 41.4346 201.836C40.9424 202.123 40.3818 202.267 39.7393 202.267C38.7822 202.267 38.0166 201.952 37.4287 201.323C36.8408 200.694 36.5469 199.874 36.5469 198.849C36.5469 197.871 36.834 197.071 37.4219 196.442C38.0029 195.82 38.7549 195.506 39.6709 195.506C40.5938 195.506 41.3252 195.807 41.8652 196.395C42.4053 196.989 42.6787 197.796 42.6787 198.821V199.033ZM44.3125 202V195.745H45.2627V197.044C45.5498 196.504 45.8506 196.114 46.1787 195.882C46.5 195.649 46.8965 195.533 47.3613 195.533C47.4844 195.533 47.6074 195.547 47.7305 195.567C47.8467 195.588 47.9629 195.615 48.0859 195.656L47.7305 196.62C47.6074 196.579 47.4912 196.552 47.3818 196.531C47.2725 196.511 47.1631 196.497 47.0674 196.497C46.5 196.497 46.0762 196.702 45.7959 197.112C45.5088 197.522 45.3721 198.131 45.3721 198.951V202H44.3125ZM49.2344 202V195.745H50.1846V197.044C50.4717 196.504 50.7725 196.114 51.1006 195.882C51.4219 195.649 51.8184 195.533 52.2832 195.533C52.4062 195.533 52.5293 195.547 52.6523 195.567C52.7686 195.588 52.8848 195.615 53.0078 195.656L52.6523 196.62C52.5293 196.579 52.4131 196.552 52.3037 196.531C52.1943 196.511 52.085 196.497 51.9893 196.497C51.4219 196.497 50.998 196.702 50.7178 197.112C50.4307 197.522 50.2939 198.131 50.2939 198.951V202H49.2344ZM54.7715 198.89C54.7715 199.553 54.9902 200.113 55.4346 200.571C55.8721 201.029 56.4121 201.255 57.041 201.255C57.6631 201.255 58.1963 201.029 58.6338 200.571C59.0713 200.113 59.29 199.553 59.29 198.89C59.29 198.233 59.0713 197.673 58.6338 197.215C58.1963 196.757 57.6631 196.524 57.041 196.524C56.4053 196.524 55.8652 196.757 55.4277 197.215C54.9902 197.673 54.7715 198.233 54.7715 198.89ZM53.6367 198.89C53.6367 198.432 53.7188 198.001 53.8896 197.591C54.0537 197.181 54.2998 196.818 54.6279 196.497C54.9492 196.183 55.3184 195.937 55.7285 195.772C56.1387 195.608 56.5762 195.52 57.041 195.52C57.4922 195.52 57.9229 195.608 58.333 195.772C58.7432 195.943 59.1123 196.189 59.4473 196.511C59.7686 196.825 60.0146 197.188 60.1855 197.598C60.3496 198.008 60.4385 198.438 60.4385 198.89C60.4385 199.348 60.3496 199.778 60.1855 200.182C60.0146 200.585 59.7686 200.94 59.4473 201.255C59.1123 201.583 58.7363 201.836 58.3262 202.007C57.916 202.185 57.4854 202.267 57.041 202.267C56.5762 202.267 56.1387 202.185 55.7285 202.014C55.3184 201.843 54.9492 201.597 54.6279 201.275C54.2998 200.947 54.0537 200.585 53.8896 200.182C53.7188 199.785 53.6367 199.354 53.6367 198.89ZM62.127 202V195.745H63.0771V197.044C63.3643 196.504 63.665 196.114 63.9932 195.882C64.3145 195.649 64.7109 195.533 65.1758 195.533C65.2988 195.533 65.4219 195.547 65.5449 195.567C65.6611 195.588 65.7773 195.615 65.9004 195.656L65.5449 196.62C65.4219 196.579 65.3057 196.552 65.1963 196.531C65.0869 196.511 64.9775 196.497 64.8818 196.497C64.3145 196.497 63.8906 196.702 63.6104 197.112C63.3232 197.522 63.1865 198.131 63.1865 198.951V202H62.127ZM66.3721 200.947L67.2881 200.332C67.459 200.667 67.6777 200.92 67.9443 201.084C68.2041 201.248 68.5186 201.33 68.8809 201.33C69.2295 201.33 69.5098 201.248 69.7285 201.07C69.9473 200.899 70.0566 200.674 70.0566 200.387C70.0566 200.168 69.9814 199.99 69.8311 199.84C69.6807 199.696 69.4277 199.56 69.0723 199.437C69.0312 199.423 68.9766 199.402 68.8945 199.375C67.3701 198.855 66.6113 198.199 66.6113 197.406C66.6113 196.853 66.8164 196.401 67.2266 196.046C67.6367 195.697 68.1699 195.52 68.8262 195.52C69.3662 195.52 69.8311 195.629 70.2207 195.848C70.6035 196.066 70.8838 196.367 71.0547 196.764L70.1865 197.297C70.0566 197.01 69.8652 196.791 69.6191 196.634C69.373 196.483 69.0859 196.401 68.7578 196.401C68.4434 196.401 68.1836 196.49 67.9854 196.668C67.7871 196.846 67.6914 197.064 67.6914 197.338C67.6914 197.721 68.1016 198.042 68.9355 198.302C69.0859 198.356 69.209 198.391 69.3047 198.418C69.9814 198.637 70.4531 198.89 70.7197 199.17C70.9863 199.45 71.123 199.819 71.123 200.277C71.123 200.872 70.9111 201.351 70.4873 201.72C70.0635 202.089 69.5166 202.267 68.8398 202.267C68.252 202.267 67.7598 202.157 67.3496 201.938C66.9395 201.72 66.6182 201.392 66.3721 200.947Z" fill="#475569"/>
</svg>
