<svg width="30" height="31" viewBox="0 0 30 31" fill="none" xmlns="http://www.w3.org/2000/svg">
<path fill-rule="evenodd" clip-rule="evenodd" d="M4.375 4.82031C3.61561 4.82031 3 5.43592 3 6.19531V24.9453C3 25.7047 3.61561 26.3203 4.375 26.3203H17.5H18.25H26.25C26.6642 26.3203 27 25.9845 27 25.5703V10.5703C27 10.1561 26.6642 9.82031 26.25 9.82031H18.25V6.19531C18.25 5.43592 17.6344 4.82031 16.875 4.82031H4.375ZM16.75 10.5703L16.75 24.8203H13.125V19.9453C13.125 19.6001 12.8451 19.3203 12.5 19.3203H8.74997C8.40479 19.3203 8.12497 19.6001 8.12497 19.9453V24.8203H4.5V6.32031H16.75L16.75 10.5703ZM25.5 24.8203H18.25V11.3203H25.5V24.8203ZM9.62497 24.8203V20.8203H11.625V24.8203H9.62497ZM20.3125 12.9453C19.8983 12.9453 19.5625 13.2811 19.5625 13.6953C19.5625 14.1095 19.8983 14.4453 20.3125 14.4453H23.4375C23.8517 14.4453 24.1875 14.1095 24.1875 13.6953C24.1875 13.2811 23.8517 12.9453 23.4375 12.9453H20.3125ZM19.5625 19.9453C19.5625 19.5311 19.8983 19.1953 20.3125 19.1953H23.4375C23.8517 19.1953 24.1875 19.5311 24.1875 19.9453C24.1875 20.3595 23.8517 20.6953 23.4375 20.6953H20.3125C19.8983 20.6953 19.5625 20.3595 19.5625 19.9453ZM20.3125 22.3203C19.8983 22.3203 19.5625 22.6561 19.5625 23.0703C19.5625 23.4845 19.8983 23.8203 20.3125 23.8203H23.4375C23.8517 23.8203 24.1875 23.4845 24.1875 23.0703C24.1875 22.6561 23.8517 22.3203 23.4375 22.3203H20.3125ZM19.5625 16.8203C19.5625 16.4061 19.8983 16.0703 20.3125 16.0703H23.4375C23.8517 16.0703 24.1875 16.4061 24.1875 16.8203C24.1875 17.2345 23.8517 17.5703 23.4375 17.5703H20.3125C19.8983 17.5703 19.5625 17.2345 19.5625 16.8203ZM6.875 8.57031C6.46079 8.57031 6.125 8.9061 6.125 9.32031C6.125 9.73453 6.46079 10.0703 6.875 10.0703H14.375C14.7892 10.0703 15.125 9.73453 15.125 9.32031C15.125 8.9061 14.7892 8.57031 14.375 8.57031H6.875ZM6.125 15.5703C6.125 15.1561 6.46079 14.8203 6.875 14.8203H14.375C14.7892 14.8203 15.125 15.1561 15.125 15.5703C15.125 15.9845 14.7892 16.3203 14.375 16.3203H6.875C6.46079 16.3203 6.125 15.9845 6.125 15.5703ZM6.875 11.6953C6.46079 11.6953 6.125 12.0311 6.125 12.4453C6.125 12.8595 6.46079 13.1953 6.875 13.1953H14.375C14.7892 13.1953 15.125 12.8595 15.125 12.4453C15.125 12.0311 14.7892 11.6953 14.375 11.6953H6.875Z" fill="#3AB549"/>
</svg>
