<svg width="24" height="25" viewBox="0 0 24 25" fill="none" xmlns="http://www.w3.org/2000/svg">
<path fill-rule="evenodd" clip-rule="evenodd" d="M17.336 3.33004C17.336 3.88233 17.7838 4.33004 18.336 4.33004H20.1341V6.2524C20.1341 6.80469 20.5818 7.2524 21.1341 7.2524C21.6864 7.2524 22.1341 6.80469 22.1341 6.2524V4.09612C22.1341 3.33668 21.7603 2.75866 21.164 2.48827C20.8667 2.35349 20.5836 2.31777 20.3294 2.33054C20.3105 2.33165 20.3028 2.3321 20.295 2.33269C20.2897 2.33309 20.2843 2.33356 20.2752 2.33436L18.336 2.33004C17.7838 2.33004 17.336 2.77776 17.336 3.33004ZM15.9637 5.9957H18.3502C18.9444 5.9957 19.4256 6.47685 19.4256 7.07114V9.45842C19.4256 10.0527 18.9444 10.5339 18.3502 10.5339H15.9637C15.3694 10.5339 14.8883 10.0527 14.8883 9.45842V7.07114C14.8883 6.47685 15.3694 5.9957 15.9637 5.9957ZM16.0883 9.33387H18.2256V7.19571H16.0883V9.33387ZM5.37561 7.07147C5.37561 6.47718 5.85676 5.99603 6.45105 5.99603H8.83749C9.43233 5.99603 9.91377 6.47689 9.91377 7.07147V9.45875C9.91377 10.0528 9.43203 10.5334 8.83749 10.5334H6.45105C5.85705 10.5334 5.37561 10.0525 5.37561 9.45875V7.07147ZM6.57561 9.33336H8.71377V7.19604H6.57561V9.33336ZM5.37561 16.5839C5.37561 15.9896 5.85676 15.5085 6.45105 15.5085H8.83749C9.43233 15.5085 9.91377 15.9893 9.91377 16.5839V18.9703C9.91377 19.5649 9.43233 20.0458 8.83749 20.0458H6.45105C5.85676 20.0458 5.37561 19.5646 5.37561 18.9703V16.5839ZM6.57561 18.8458H8.71377V16.7085H6.57561V18.8458ZM12.6247 6.46862C12.6247 6.13725 12.8934 5.86862 13.2247 5.86862C13.5561 5.86862 13.8247 6.13725 13.8247 6.46862V8.51906C13.8247 8.97581 13.6075 9.32593 13.2519 9.49044C13.0762 9.57176 12.9077 9.59356 12.7549 9.58526H12.128C12.1253 9.61336 12.1244 9.6404 12.1249 9.66196L12.1254 9.68582V11.8698C12.1254 12.3982 11.8786 12.7897 11.47 12.9576C11.2783 13.0365 11.093 13.0525 10.9228 13.036H9.3918C9.06043 13.036 8.7918 12.7674 8.7918 12.436C8.7918 12.1046 9.06043 11.836 9.3918 11.836H10.9254L10.9261 9.71457L10.9253 9.69273C10.9214 9.54024 10.9353 9.36317 10.9861 9.17732C11.1094 8.72655 11.422 8.38526 11.942 8.38526L12.6247 8.3881V6.46862ZM13.907 16.1554C13.9075 16.1551 13.9079 16.1544 13.908 16.1537L13.9049 16.155C13.9028 16.1531 13.9003 16.1459 13.9003 16.1275V15.0523C13.9003 14.721 14.1689 14.4523 14.5003 14.4523C14.8316 14.4523 15.1003 14.721 15.1003 15.0523V16.1275C15.1003 16.6442 14.8445 17.0274 14.447 17.2259C14.2283 17.3351 14.0227 17.3693 13.8577 17.3693H12.5246C12.509 17.3693 12.4979 17.3684 12.4901 17.3669L12.4921 17.4027V18.9029C12.4921 19.2343 12.2234 19.5029 11.8921 19.5029C11.5607 19.5029 11.2921 19.2343 11.2921 18.9029L11.2973 17.4815L11.2953 17.4654C11.2945 17.4579 11.2939 17.4505 11.2922 17.4306L11.2922 17.4304C11.279 17.2512 11.3002 17.0526 11.389 16.8476C11.571 16.4274 11.9747 16.1693 12.5246 16.1693H13.8577C13.8564 16.1693 13.8585 16.1688 13.8628 16.1678L13.8629 16.1678C13.8718 16.1656 13.89 16.1613 13.9049 16.155C13.9057 16.1557 13.9065 16.1558 13.907 16.1554ZM13.7916 12.8862C13.4602 12.8862 13.1916 12.6176 13.1916 12.2862C13.1916 11.9548 13.4602 11.6862 13.7916 11.6862L15.7344 11.6877C15.8683 11.6973 16.0306 11.734 16.2039 11.8266C16.5316 12.0019 16.7503 12.3215 16.7503 12.744V13.1898H18.0252C18.3565 13.1898 18.6252 13.4584 18.6252 13.7898C18.6252 14.1212 18.3565 14.3898 18.0252 14.3898H16.3704C16.0138 14.3898 15.7185 14.2062 15.5988 13.8945C15.549 13.765 15.5389 13.6439 15.5503 13.5299V12.8862H13.7916ZM16.7352 13.7024C16.7377 13.6909 16.7389 13.6854 16.7399 13.6798C16.7409 13.6744 16.7417 13.669 16.7433 13.6586L16.7433 13.6585C16.7458 13.6392 16.7472 13.6197 16.7468 13.5996L16.7352 13.7024ZM6.36528 13.0413C6.03391 13.0413 5.76528 12.7726 5.76528 12.4413C5.76528 12.1099 6.03391 11.8413 6.36528 11.8413H7.36488C7.69626 11.8413 7.96488 12.1099 7.96488 12.4413C7.96488 12.7726 7.69626 13.0413 7.36488 13.0413H6.36528ZM5.66472 20.8068C6.21701 20.8068 6.66472 21.2545 6.66472 21.8068C6.66472 22.359 6.21701 22.8068 5.66472 22.8068L3.72546 22.8025L3.70564 22.8041C3.69791 22.8047 3.69018 22.8052 3.6713 22.8063C3.4171 22.819 3.13401 22.7833 2.83674 22.6487C2.24002 22.3784 1.86584 21.8004 1.86584 21.0407V18.8844C1.86584 18.3321 2.31356 17.8844 2.86584 17.8844C3.41813 17.8844 3.86584 18.3321 3.86584 18.8844V20.8068H5.66472ZM17.6503 16.3025C17.6503 15.7502 18.098 15.3025 18.6503 15.3025C19.2026 15.3025 19.6503 15.7502 19.6503 16.3025V17.5785C19.6503 18.2666 19.3016 18.7982 18.7571 19.0558C18.4823 19.1858 18.224 19.2244 17.9946 19.2194H16.8913C16.339 19.2194 15.8913 18.7717 15.8913 18.2194C15.8913 17.6671 16.339 17.2194 16.8913 17.2194L17.6503 17.2203V16.3025ZM5.66472 2.33004C6.21701 2.33004 6.66472 2.77776 6.66472 3.33004C6.66472 3.88233 6.21701 4.33004 5.66472 4.33004L3.86584 4.3264V6.2524C3.86584 6.80469 3.41813 7.2524 2.86584 7.2524C2.31356 7.2524 1.86584 6.80469 1.86584 6.2524V4.09612C1.86584 3.33642 2.24002 2.75835 2.83674 2.4881C3.12991 2.35532 3.40929 2.31878 3.66076 2.33004H5.66472ZM20.1342 18.884C20.1342 18.3317 20.5819 17.884 21.1342 17.884C21.6864 17.884 22.1342 18.3317 22.1342 18.884V21.0403C22.1342 21.7997 21.7604 22.3777 21.1641 22.6481C20.8709 22.781 20.5916 22.8176 20.3401 22.8063H18.3361C17.7838 22.8063 17.3361 22.3586 17.3361 21.8063C17.3361 21.254 17.7838 20.8063 18.3361 20.8063L20.1342 20.81V18.884Z" fill="#3AB549"/>
</svg>
