<svg width="25" height="24" viewBox="0 0 25 24" fill="none" xmlns="http://www.w3.org/2000/svg">
<g id="fi-rr-receipt" clip-path="url(#clip0_118_10654)">
<path id="Vector" d="M16.5 0H8.5C7.1744 0.00158786 5.90356 0.528882 4.96622 1.46622C4.02888 2.40356 3.50159 3.6744 3.5 5V23C3.50014 23.1819 3.54989 23.3603 3.64388 23.516C3.73788 23.6717 3.87256 23.7988 4.03344 23.8837C4.19431 23.9686 4.37529 24.0079 4.55688 23.9976C4.73847 23.9873 4.9138 23.9276 5.064 23.825L7.17 22.386L9.276 23.825C9.44239 23.9389 9.63934 23.9999 9.841 23.9999C10.0427 23.9999 10.2396 23.9389 10.406 23.825L12.506 22.386L14.606 23.825C14.7725 23.9391 14.9696 24.0002 15.1715 24.0002C15.3734 24.0002 15.5705 23.9391 15.737 23.825L17.837 22.387L19.937 23.824C20.0871 23.9263 20.2622 23.9857 20.4436 23.9959C20.625 24.0062 20.8057 23.9668 20.9663 23.8821C21.127 23.7974 21.2616 23.6706 21.3556 23.5151C21.4496 23.3597 21.4995 23.1816 21.5 23V5C21.4984 3.6744 20.9711 2.40356 20.0338 1.46622C19.0964 0.528882 17.8256 0.00158786 16.5 0V0ZM19.5 21.1L18.4 20.348C18.2334 20.2336 18.0361 20.1724 17.834 20.1724C17.6319 20.1724 17.4346 20.2336 17.268 20.348L15.168 21.787L13.068 20.348C12.9015 20.2338 12.7044 20.1727 12.5025 20.1727C12.3006 20.1727 12.1035 20.2338 11.937 20.348L9.837 21.787L7.737 20.348C7.57071 20.2343 7.37395 20.1734 7.1725 20.1734C6.97104 20.1734 6.77429 20.2343 6.608 20.348L5.5 21.1V5C5.5 4.20435 5.81607 3.44129 6.37868 2.87868C6.94129 2.31607 7.70435 2 8.5 2H16.5C17.2956 2 18.0587 2.31607 18.6213 2.87868C19.1839 3.44129 19.5 4.20435 19.5 5V21.1Z" fill="#35A839"/>
<path id="Vector_2" d="M16.5 8H8.5C7.94771 8 7.5 8.44771 7.5 9C7.5 9.55228 7.94771 10 8.5 10H16.5C17.0523 10 17.5 9.55228 17.5 9C17.5 8.44771 17.0523 8 16.5 8Z" fill="#35A839"/>
<path id="Vector_3" d="M14.5 12H8.5C7.94772 12 7.5 12.4477 7.5 13C7.5 13.5523 7.94772 14 8.5 14H14.5C15.0523 14 15.5 13.5523 15.5 13C15.5 12.4477 15.0523 12 14.5 12Z" fill="#35A839"/>
</g>
<defs>
<clipPath id="clip0_118_10654">
<rect width="24" height="24" fill="white" transform="translate(0.5)"/>
</clipPath>
</defs>
</svg>
